<svg width="430" height="406" viewBox="0 0 430 406" fill="none" xmlns="http://www.w3.org/2000/svg">
<g clip-path="url(#clip0_136_4357)">
<path d="M430 403.86H139.829V405.11H430V403.86Z" fill="#05386B"/>
<path d="M375.848 191.281C376.406 191.936 376.821 192.702 377.064 193.528C377.308 194.353 377.375 195.221 377.262 196.074C377.148 196.928 376.857 197.748 376.406 198.481C375.955 199.215 375.355 199.846 374.644 200.333L344.614 220.927L331.39 229.733C330.639 230.233 329.729 230.436 328.836 230.303C327.943 230.17 327.132 229.709 326.56 229.011C326.227 228.604 325.986 228.13 325.854 227.621C325.722 227.112 325.703 226.581 325.797 226.063C325.891 225.546 326.096 225.055 326.398 224.625C326.701 224.195 327.093 223.835 327.548 223.571L340.356 216.143L362.709 194.879L348.339 179.462L358.984 171.488L375.848 191.281Z" fill="#A0616A"/>
<path d="M305.229 385.194H297.883L293.521 324.59L312.148 324.059L305.229 385.194Z" fill="#A0616A"/>
<path d="M305.762 404.863C303.803 405.756 302.163 398.522 300.51 400.144C295.889 404.68 288.812 405.668 282.644 403.687L284.802 403.663C284.43 403.544 284.086 403.35 283.791 403.094C283.496 402.838 283.256 402.524 283.086 402.173C282.916 401.821 282.819 401.439 282.801 401.048C282.783 400.658 282.844 400.269 282.982 399.903C283.146 399.465 283.414 399.074 283.763 398.763C284.112 398.452 284.532 398.23 284.986 398.117L289.901 396.889L297.618 383.333L305.496 382.802C307.252 385.038 308.478 387.643 309.081 390.421C309.684 393.199 309.648 396.078 308.977 398.84C308.262 401.754 307.158 404.227 305.762 404.863Z" fill="#2F2E41"/>
<path d="M354.141 385.194H346.795L342.432 324.591L361.591 320.87L354.141 385.194Z" fill="#A0616A"/>
<path d="M354.673 404.863C352.714 405.756 351.074 398.522 349.422 400.144C344.8 404.68 337.723 405.668 331.555 403.687L333.714 403.663C333.341 403.544 332.997 403.35 332.702 403.094C332.407 402.837 332.167 402.524 331.997 402.172C331.827 401.821 331.73 401.438 331.712 401.048C331.694 400.658 331.755 400.268 331.893 399.903C332.057 399.465 332.325 399.074 332.674 398.763C333.024 398.452 333.443 398.23 333.897 398.116L338.812 396.889L346.529 383.333L354.939 382.27L355.152 382.617C356.777 385.234 357.826 388.168 358.226 391.222C358.627 394.276 358.371 397.381 357.475 400.328C356.776 402.567 355.824 404.339 354.673 404.863Z" fill="#2F2E41"/>
<path d="M362.47 172.859C355.715 173.798 351.038 177.493 349.133 184.865L336.716 161.964C335.98 160.509 335.793 158.837 336.19 157.256C336.588 155.674 337.542 154.289 338.879 153.353C340.298 152.36 342.044 151.946 343.758 152.197C345.472 152.447 347.026 153.343 348.1 154.701L362.47 172.859Z" fill="#05386B"/>
<path d="M375.482 318.211C345.291 331.555 314.393 333.196 282.877 324.591C294.386 280.006 307.975 239.691 307.891 206.574L338.759 203.916L343.512 211.442C354.788 229.299 362.572 249.13 366.45 269.884L375.482 318.211Z" fill="#2F2E41"/>
<path d="M324.921 137.997C333.739 137.997 340.888 130.856 340.888 122.049C340.888 113.241 333.739 106.1 324.921 106.1C316.103 106.1 308.955 113.241 308.955 122.049C308.955 130.856 316.103 137.997 324.921 137.997Z" fill="#A0616A"/>
<path d="M342.485 150.223L322.793 151.287L319.6 133.744L335.566 131.086L342.485 150.223Z" fill="#A0616A"/>
<path d="M340.355 206.574L318.782 207.181L307.89 208.7C302.544 191.06 298.043 173.46 308.955 158.729L321.728 145.971L340.888 145.439L341.141 145.584C344.184 147.325 346.542 150.05 347.827 153.309C349.112 156.568 349.247 160.167 348.21 163.514C343.456 178.947 340.402 193.52 340.355 206.574Z" fill="#05386B"/>
<path d="M307.359 256.013L306.02 274.281C305.949 275.26 305.526 276.18 304.829 276.871C304.132 277.563 303.209 277.979 302.228 278.045C301.664 278.082 301.097 278.002 300.566 277.809C300.034 277.616 299.548 277.314 299.139 276.923C298.731 276.532 298.408 276.06 298.192 275.537C297.976 275.015 297.871 274.453 297.885 273.888L298.311 256.013L311.616 205.511L312.149 174.678L327.05 174.146L325.986 209.764L307.359 256.013Z" fill="#A0616A"/>
<path d="M328.647 176.804C322.329 174.238 316.428 175.097 311.084 180.525L311.816 154.492C311.908 152.864 312.585 151.324 313.722 150.153C314.858 148.983 316.379 148.261 318.006 148.12C319.732 147.97 321.45 148.485 322.808 149.56C324.167 150.634 325.062 152.187 325.312 153.899L328.647 176.804Z" fill="#05386B"/>
<path d="M358.717 193.018H309.754C321.176 162.806 324.859 134.7 309.754 110.619C310.013 103.386 319.301 97.1161 326.513 97.8088C335.031 98.6269 346.477 104.879 348.073 113.277L358.717 193.018Z" fill="#2F2E41"/>
<path d="M202.673 96.4808H200.439V35.3695C200.439 30.7247 199.523 26.1254 197.744 21.8342C195.964 17.5429 193.356 13.6438 190.068 10.3595C186.78 7.07509 182.876 4.46979 178.58 2.69231C174.284 0.914834 169.679 -1.39192e-05 165.029 1.58839e-10H35.4098C30.7597 -1.02562e-05 26.1552 0.914845 21.8591 2.69233C17.5629 4.46981 13.6594 7.07511 10.3713 10.3595C7.08318 13.6438 4.47491 17.543 2.6954 21.8342C0.915893 26.1254 -5.134e-06 30.7247 0 35.3695V370.63C-3.66714e-06 375.275 0.915893 379.875 2.6954 384.166C4.47491 388.457 7.08318 392.356 10.3713 395.64C13.6594 398.925 17.5629 401.53 21.8591 403.308C26.1552 405.085 30.7597 406 35.4098 406H165.029C169.679 406 174.284 405.085 178.58 403.308C182.876 401.53 186.78 398.925 190.068 395.641C193.356 392.356 195.964 388.457 197.744 384.166C199.523 379.875 200.439 375.275 200.439 370.63V139.981H202.673V96.4808Z" fill="#001835"/>
<path d="M166.458 9.2019H149.538C150.316 11.1074 150.613 13.1747 150.403 15.2218C150.193 17.269 149.482 19.233 148.333 20.941C147.184 22.649 145.632 24.0485 143.813 25.0163C141.995 25.984 139.967 26.4902 137.906 26.4904H63.649C61.5888 26.4902 59.5603 25.984 57.7421 25.0163C55.9239 24.0485 54.3718 22.649 53.2227 20.941C52.0735 19.2331 51.3625 17.269 51.1523 15.2218C50.942 13.1747 51.239 11.1074 52.0171 9.2019H36.2141C32.7415 9.2019 29.3029 9.8851 26.0946 11.2125C22.8863 12.5399 19.9712 14.4855 17.5157 16.9382C15.0602 19.391 13.1123 22.3028 11.7834 25.5074C10.4545 28.712 9.77051 32.1467 9.77051 35.6154V370.384C9.77051 373.853 10.4545 377.288 11.7834 380.492C13.1123 383.697 15.0602 386.609 17.5157 389.062C19.9712 391.514 22.8863 393.46 26.0946 394.787C29.3029 396.115 32.7415 396.798 36.2141 396.798H166.458C169.931 396.798 173.369 396.115 176.578 394.787C179.786 393.46 182.701 391.514 185.156 389.062C187.612 386.609 189.56 383.697 190.889 380.492C192.218 377.288 192.902 373.853 192.902 370.384V35.6154C192.902 28.6101 190.116 21.8917 185.156 16.9382C180.197 11.9847 173.471 9.20189 166.458 9.2019Z" fill="#F7FAFC"/>
<path d="M170.032 61.4954H32.6416V179.204H170.032V61.4954Z" fill="#E6E6E6"/>
<path d="M73.4113 203.75C78.9634 203.75 83.4643 199.254 83.4643 193.709C83.4643 188.163 78.9634 183.667 73.4113 183.667C67.8593 183.667 63.3584 188.163 63.3584 193.709C63.3584 199.254 67.8593 203.75 73.4113 203.75Z" fill="#05386B"/>
<path d="M78.4377 192.872H74.249V188.688H72.5735V192.872H68.3848V194.546H72.5735V198.73H74.249V194.546H78.4377V192.872Z" fill="#F7FAFC"/>
<path d="M126.469 203.75C132.021 203.75 136.522 199.254 136.522 193.709C136.522 188.163 132.021 183.667 126.469 183.667C120.917 183.667 116.416 188.163 116.416 193.709C116.416 199.254 120.917 203.75 126.469 203.75Z" fill="#05386B"/>
<path d="M131.495 194.545V192.872H121.442V194.545H131.495Z" fill="#F7FAFC"/>
<path d="M106.461 76.1753H95.6035C95.2218 76.1753 94.8556 76.3268 94.5857 76.5964C94.3157 76.8661 94.1641 77.2318 94.1641 77.6131V82.3733C94.1641 82.7546 94.3157 83.1203 94.5857 83.39C94.8556 83.6596 95.2218 83.8111 95.6035 83.8111H97.4027V90.9435H104.662V83.8111H106.461C106.843 83.8111 107.209 83.6596 107.479 83.39C107.749 83.1203 107.9 82.7546 107.9 82.3733V77.6131C107.9 77.2318 107.749 76.8661 107.479 76.5964C107.209 76.3268 106.843 76.1753 106.461 76.1753Z" fill="#05386B"/>
<path d="M117.335 119.74C110.686 110.022 107.287 98.45 107.624 86.6834C107.63 86.4119 107.542 86.1467 107.375 85.9328C107.207 85.7189 106.971 85.5695 106.705 85.51V83.4531H95.2386V85.4814H95.0806C94.9261 85.4816 94.7732 85.5122 94.6305 85.5714C94.4878 85.6307 94.3582 85.7174 94.2491 85.8267C94.14 85.936 94.0535 86.0656 93.9945 86.2083C93.9356 86.351 93.9053 86.5038 93.9055 86.6582C93.9056 86.6867 93.9067 86.7152 93.9088 86.7437C94.8121 99.3221 91.7617 110.602 84.7574 120.584C84.3544 121.158 84.1484 121.846 84.1706 122.547L85.4244 161.287C85.4545 162.151 85.8176 162.97 86.4379 163.574C87.0581 164.177 87.8876 164.517 88.7532 164.524H114.689C115.565 164.517 116.403 164.169 117.025 163.553C117.647 162.938 118.004 162.105 118.02 161.23L118.503 123.616C118.517 122.236 118.11 120.884 117.335 119.74Z" fill="#6688A9"/>
<path opacity="0.2" d="M104.197 77.7263C104.197 78.549 103.87 79.338 103.288 79.9198C102.705 80.5015 101.916 80.8284 101.092 80.8284C100.268 80.8284 99.4783 80.5015 98.8959 79.9198C98.3135 79.338 97.9863 78.549 97.9863 77.7263" fill="black"/>
<path d="M113.229 132.609H110.088C109.789 130.665 108.802 128.893 107.308 127.613C105.814 126.333 103.91 125.629 101.941 125.629C99.9728 125.629 98.0692 126.333 96.5749 127.613C95.0807 128.893 94.0944 130.665 93.7946 132.609H90.6537C90.3195 132.609 89.9893 132.681 89.6857 132.82C89.382 132.96 89.1122 133.163 88.8946 133.416C88.677 133.67 88.5168 133.967 88.4251 134.288C88.3333 134.609 88.3121 134.946 88.3629 135.276L91.7743 157.425H111.363L115.507 135.351C115.57 135.016 115.558 134.672 115.473 134.343C115.387 134.014 115.23 133.707 115.013 133.445C114.795 133.184 114.522 132.973 114.214 132.828C113.906 132.684 113.57 132.609 113.229 132.609Z" fill="#05386B"/>
<path d="M170.032 227.18H32.6416V344.889H170.032V227.18Z" fill="#E6E6E6"/>
<path d="M73.4113 369.435C78.9634 369.435 83.4643 364.94 83.4643 359.394C83.4643 353.848 78.9634 349.352 73.4113 349.352C67.8593 349.352 63.3584 353.848 63.3584 359.394C63.3584 364.94 67.8593 369.435 73.4113 369.435Z" fill="#05386B"/>
<path d="M78.4377 358.557H74.249V354.373H72.5735V358.557H68.3848V360.231H72.5735V364.415H74.249V360.231H78.4377V358.557Z" fill="#F7FAFC"/>
<path d="M126.469 369.435C132.021 369.435 136.522 364.94 136.522 359.394C136.522 353.848 132.021 349.352 126.469 349.352C120.917 349.352 116.416 353.848 116.416 359.394C116.416 364.94 120.917 369.435 126.469 369.435Z" fill="#05386B"/>
<path d="M131.495 360.23V358.557H121.442V360.23H131.495Z" fill="#F7FAFC"/>
<path d="M128.383 310.803L128.459 310.803C131.046 310.825 133.579 310.067 135.728 308.629C137.877 307.191 139.543 305.139 140.507 302.742C143.546 295.066 144.258 286.667 142.553 278.59C140.849 270.514 136.803 263.116 130.921 257.319C125.038 251.522 117.579 247.582 109.471 245.988C101.362 244.395 92.9643 245.219 85.3216 248.358C77.679 251.497 71.1295 256.812 66.4888 263.642C61.8482 270.471 59.3212 278.514 59.2227 286.767C59.1242 295.021 61.4585 303.121 65.9348 310.059C70.4112 316.997 76.8319 322.467 84.3975 325.787C86.7489 326.827 89.36 327.133 91.8885 326.664C94.417 326.196 96.7447 324.975 98.5665 323.163C102.474 319.239 107.12 316.127 112.238 314.006C117.355 311.884 122.842 310.796 128.383 310.803Z" fill="#F7FAFC"/>
<path d="M106.746 298.066C114.428 298.066 120.656 291.846 120.656 284.172C120.656 276.499 114.428 270.278 106.746 270.278C99.0636 270.278 92.8359 276.499 92.8359 284.172C92.8359 291.846 99.0636 298.066 106.746 298.066Z" fill="#F9A825"/>
</g>
<defs>
<clipPath id="clip0_136_4357">
<rect width="430" height="406" fill="white"/>
</clipPath>
</defs>
</svg>
