<svg width="513" height="397" viewBox="0 0 513 397" fill="none" xmlns="http://www.w3.org/2000/svg">
<g clip-path="url(#clip0_135_2697)">
<path d="M392.711 361.377C407.797 361.377 420.027 336.426 420.027 305.647C420.027 274.868 407.797 249.917 392.711 249.917C377.625 249.917 365.396 274.868 365.396 305.647C365.396 336.426 377.625 361.377 392.711 361.377Z" fill="#CCD7E3"/>
<path d="M390.189 396.867C401.129 331.234 390.299 265.839 390.188 265.186L388.06 265.547C388.17 266.196 398.938 331.248 388.06 396.513L390.189 396.867Z" fill="#05386B"/>
<path d="M368.662 293.663L367.644 295.567L392.345 308.777L393.363 306.874L368.662 293.663Z" fill="#05386B"/>
<path d="M418.413 300.281L393.716 313.499L394.735 315.402L419.432 302.184L418.413 300.281Z" fill="#05386B"/>
<path d="M458.342 326.447C487.848 326.447 511.768 277.646 511.768 217.447C511.768 157.247 487.848 108.446 458.342 108.446C428.836 108.446 404.916 157.247 404.916 217.447C404.916 277.646 428.836 326.447 458.342 326.447Z" fill="#456D95"/>
<path d="M452.391 395.694C473.76 267.493 452.607 139.759 452.391 138.484L450.263 138.844C450.478 140.116 471.57 267.507 450.262 395.34L452.391 395.694Z" fill="#05386B"/>
<path d="M410.818 194.917L409.8 196.821L458.113 222.66L459.131 220.757L410.818 194.917Z" fill="#05386B"/>
<path d="M509.1 207.861L460.794 233.714L461.813 235.617L510.119 209.765L509.1 207.861Z" fill="#05386B"/>
<path d="M334.26 396.037H50.0848C49.0396 396.035 48.0376 395.62 47.2986 394.881C46.5595 394.142 46.1438 393.14 46.1426 392.095V212.545C46.1437 211.5 46.5595 210.498 47.2985 209.759C48.0376 209.02 49.0396 208.604 50.0848 208.603H334.26C335.306 208.604 336.308 209.02 337.047 209.759C337.786 210.498 338.201 211.5 338.203 212.545V392.095C338.201 393.14 337.786 394.142 337.047 394.881C336.308 395.62 335.306 396.035 334.26 396.037Z" fill="#CBD5E0"/>
<path d="M76.2188 230.361C75.7709 230.362 75.3414 230.54 75.0247 230.856C74.7079 231.173 74.5298 231.603 74.5293 232.05V372.59C74.5298 373.038 74.7079 373.467 75.0247 373.784C75.3414 374.101 75.7709 374.279 76.2188 374.279H308.127C308.575 374.279 309.004 374.101 309.321 373.784C309.638 373.467 309.816 373.038 309.817 372.59V232.05C309.816 231.603 309.638 231.173 309.321 230.856C309.004 230.54 308.575 230.362 308.127 230.361H76.2188Z" fill="#EDF2F7"/>
<path d="M310.379 266.559V257.653H277.584V229.798H268.677V257.653H210.29V229.798H201.384V257.653H111.329V229.798H102.422V257.653H71.2817V266.559H102.422V301.192H71.2817V310.098H102.422V347.205H71.2817V356.11H150.418V374.842H159.325V356.11H201.383V374.842H210.29V356.11H310.379V347.205H210.29V310.098H310.379V301.192H277.584V266.559H310.379ZM201.384 266.559V277.443H111.329V266.559H201.384ZM111.329 286.349H201.384V301.192H111.329V286.349ZM111.329 347.205V310.098H150.418V347.205H111.329ZM201.384 347.205H159.325V310.098H201.384V347.205ZM268.677 301.192H210.29V266.559H268.677V301.192Z" fill="#CBD5E0"/>
<path d="M205.837 318.151C212.122 318.151 217.217 313.056 217.217 306.771C217.217 300.486 212.122 295.392 205.837 295.392C199.551 295.392 194.456 300.486 194.456 306.771C194.456 313.056 199.551 318.151 205.837 318.151Z" fill="#05386B"/>
<path d="M512.778 397H0V395.771H513L512.778 397Z" fill="#05386B"/>
<path d="M207.201 239.171C245.973 239.171 277.403 207.743 277.403 168.975C277.403 130.206 245.973 98.7783 207.201 98.7783C168.429 98.7783 136.998 130.206 136.998 168.975C136.998 207.743 168.429 239.171 207.201 239.171Z" fill="#05386B"/>
<path d="M207.887 283.086L185.708 245.203L163.529 207.319L207.43 207.055L251.33 206.791L229.609 244.938L207.887 283.086Z" fill="#05386B"/>
<path d="M207.764 193.719C221.675 193.719 232.952 182.443 232.952 168.533C232.952 154.624 221.675 143.348 207.764 143.348C193.854 143.348 182.577 154.624 182.577 168.533C182.577 182.443 193.854 193.719 207.764 193.719Z" fill="#F7FAFC"/>
<path d="M205.577 0.360694C205.577 0.360694 190.555 -3.87046 186.112 16.6506C181.669 37.1716 184.491 34.5861 184.491 34.5861L218.026 30.6723C218.026 30.6723 228.11 6.60161 205.577 0.360694Z" fill="#2F2E41"/>
<path d="M183.731 90.3872C183.731 90.3872 161.068 91.4362 164.992 100.331C165.27 100.96 165.528 101.549 165.767 102.099C168.572 108.541 171.802 114.791 175.433 120.807L189.362 143.884L194.431 141.068L180.168 103.994L192.988 102.947L183.731 90.3872Z" fill="#FFB6B6"/>
<path d="M243.486 99.8079L250.812 115.767C250.812 115.767 256.306 121.261 262.324 143.237C268.342 165.213 269.65 164.428 269.65 164.428L263.702 166.409L239.299 122.046L227.264 106.872L230.927 98.7615L243.486 99.8079Z" fill="#FFB6B6"/>
<path d="M234.59 81.4946L245.117 101.087C245.117 101.087 268.984 147.982 266.517 147.826C263.744 147.651 255.956 150.883 253.564 154.02C252.41 155.535 235.543 118.543 229.618 110.273L216.798 100.331C216.798 100.331 180.396 106.457 180.352 104.465C180.33 103.49 192.403 126.901 189.926 125.864C187.103 124.682 180.463 130.433 177.536 129.243C176.328 128.752 167.794 108.063 164.34 99.5852C163.906 98.5269 163.884 97.345 164.277 96.2709C164.669 95.1969 165.449 94.3082 166.463 93.779C169.059 92.429 205.131 84.1929 205.131 84.1929L204.5 80.9714L207.117 75.739L234.59 81.4946Z" fill="#2F2E41"/>
<path d="M213.003 23.7402C213.906 18.1779 210.128 12.9371 204.565 12.0344C199.002 11.1318 193.761 14.9092 192.858 20.4715C191.955 26.0338 195.733 31.2747 201.296 32.1773C206.859 33.0799 212.1 29.3025 213.003 23.7402Z" fill="#FFB6B6"/>
<path d="M235.543 83.0666C236.106 84.7567 232.457 85.7276 227.371 84.7779C222.97 83.9564 218.153 82.9806 214.354 82.1905C210.286 81.3429 207.379 80.7098 207.379 80.7098C207.379 80.7098 206.332 87.2502 202.931 86.4654C200 85.7904 191.243 55.2044 188.875 46.7515C188.702 46.1343 188.736 45.4774 188.97 44.8809C189.205 44.2845 189.628 43.781 190.176 43.4472L202.203 36.1035C202.203 36.1035 210.492 33.2571 213.514 33.176C216.536 33.0949 221.769 32.3101 221.769 32.3101C221.769 32.3101 227.787 32.8333 228.833 37.2808C229.88 41.7284 234.247 68.0982 234.328 74.4308C234.417 81.3772 233.853 77.9984 235.543 83.0666Z" fill="#05386B"/>
<path d="M206.745 9.00024C206.745 9.00024 202.514 20.2128 192.147 24.867L190.454 14.9238L206.745 9.00024Z" fill="#2F2E41"/>
<path d="M212.873 20.9296C213.668 20.9296 214.312 19.6997 214.312 18.1826C214.312 16.6654 213.668 15.4355 212.873 15.4355C212.078 15.4355 211.434 16.6654 211.434 18.1826C211.434 19.6997 212.078 20.9296 212.873 20.9296Z" fill="#FFB6B6"/>
<path d="M198.648 146.5L178.421 155.798L178.303 155.543C177.343 153.455 177.252 151.071 178.05 148.916C178.848 146.761 180.469 145.011 182.556 144.051L182.557 144.051L194.911 138.372L198.648 146.5Z" fill="#2F2E41"/>
<path d="M260.686 165.077L273.094 159.515C275.191 158.576 277.576 158.507 279.723 159.325C281.871 160.143 283.606 161.781 284.546 163.878L284.661 164.135L264.346 173.24L260.686 165.077Z" fill="#2F2E41"/>
<path opacity="0.2" d="M227.095 58.8521L224.726 84.9027L228.937 85.1015L227.095 58.8521Z" fill="black"/>
<path d="M210.583 107.518C211.085 106.958 211.458 106.295 211.676 105.575C211.893 104.855 211.951 104.096 211.843 103.352C211.736 102.607 211.467 101.895 211.054 101.266C210.642 100.637 210.097 100.106 209.457 99.7104L200.357 53.7449L189.907 57.7426L202.138 101.668C201.545 102.787 201.382 104.084 201.681 105.315C201.981 106.545 202.721 107.623 203.762 108.344C204.803 109.065 206.072 109.379 207.329 109.227C208.587 109.075 209.744 108.467 210.583 107.518Z" fill="#FFB6B6"/>
<path d="M202.66 61.4918L191.185 63.5127C190.858 63.5702 190.523 63.5566 190.203 63.473C189.882 63.3893 189.583 63.2375 189.326 63.0279C189.069 62.8183 188.86 62.5558 188.714 62.2583C188.568 61.9608 188.488 61.6353 188.479 61.3039L188.162 49.693C187.877 48.021 188.267 46.3042 189.246 44.9191C190.225 43.534 191.713 42.5937 193.385 42.3044C195.056 42.015 196.774 42.4003 198.162 43.3757C199.55 44.3511 200.494 45.837 200.788 47.5075L204.448 58.4914C204.553 58.8059 204.589 59.1393 204.553 59.4688C204.517 59.7984 204.411 60.1164 204.241 60.4011C204.071 60.6858 203.842 60.9306 203.569 61.1189C203.297 61.3071 202.986 61.4343 202.66 61.4918Z" fill="#05386B"/>
<path d="M219.381 106.71C220.036 106.34 220.602 105.831 221.039 105.219C221.476 104.607 221.774 103.907 221.911 103.167C222.048 102.427 222.021 101.667 221.833 100.939C221.644 100.211 221.298 99.533 220.819 98.9531L226.94 52.4971L215.759 52.933L213.258 98.4607C212.337 99.33 211.767 100.507 211.656 101.768C211.545 103.03 211.901 104.288 212.655 105.305C213.41 106.322 214.512 107.026 215.751 107.285C216.991 107.544 218.283 107.339 219.381 106.71Z" fill="#FFB6B6"/>
<path d="M226.636 60.5728L215.119 58.8078C214.791 58.7576 214.478 58.6373 214.201 58.4553C213.924 58.2732 213.69 58.0335 213.514 57.7526C213.338 57.4717 213.224 57.1562 213.181 56.8275C213.138 56.4989 213.166 56.1648 213.264 55.848L216.688 44.7487C216.954 43.0736 217.874 41.5724 219.245 40.5745C220.617 39.5765 222.328 39.1631 224.004 39.425C225.68 39.6869 227.184 40.6026 228.186 41.9714C229.187 43.3402 229.605 45.0504 229.348 46.7269L229.293 58.3044C229.291 58.6359 229.218 58.9631 229.078 59.2638C228.939 59.5645 228.736 59.8316 228.484 60.0468C228.232 60.2621 227.936 60.4205 227.617 60.5113C227.298 60.6021 226.964 60.6231 226.636 60.5728Z" fill="#05386B"/>
</g>
<defs>
<clipPath id="clip0_135_2697">
<rect width="513" height="397" fill="white"/>
</clipPath>
</defs>
</svg>
