<svg width="553" height="406" viewBox="0 0 553 406" fill="none" xmlns="http://www.w3.org/2000/svg">
<g clip-path="url(#clip0_125_2064)">
<path d="M109.306 211.45L102.021 134.261L80.2969 135.01L97.4936 211.235C96.0906 212.412 95.0805 213.989 94.5985 215.755C94.1166 217.521 94.1856 219.392 94.7965 221.118C95.4073 222.844 96.5308 224.343 98.0168 225.413C99.5028 226.484 101.28 227.075 103.112 227.109C104.943 227.142 106.741 226.616 108.265 225.6C109.789 224.585 110.967 223.128 111.64 221.426C112.314 219.723 112.451 217.856 112.034 216.073C111.617 214.291 110.665 212.678 109.306 211.45Z" fill="#FFB8B8"/>
<path d="M522.301 383.493C522.1 390.969 520.848 398.379 518.579 405.505C518.527 405.671 518.473 405.834 518.419 405.999H504.528C504.543 405.849 504.558 405.685 504.572 405.505C505.498 394.864 510.838 330.097 504.454 319.022C505.013 319.921 523.375 349.68 522.301 383.493Z" fill="#F0F0F0"/>
<path d="M520.071 404.968C519.828 405.313 519.575 405.659 519.317 406H497.527C497.692 405.706 497.883 405.36 498.105 404.968C501.705 398.473 512.36 379.062 522.251 358.931C532.88 337.302 542.631 314.852 541.81 306.726C542.062 308.559 549.415 364.424 520.071 404.968Z" fill="#F0F0F0"/>
<path d="M41.4651 372.153C41.7635 383.286 43.6296 394.322 47.0084 404.935C47.0833 405.182 47.1665 405.424 47.2474 405.671H67.9315C67.9098 405.45 67.8873 405.203 67.8656 404.935C66.4865 389.088 58.5348 292.637 68.0423 276.143C67.2101 277.481 39.8583 321.799 41.4651 372.153Z" fill="#F0F0F0"/>
<path d="M43.0168 404.935C43.1899 405.182 43.3697 405.428 43.5539 405.671H59.0708C58.9532 405.461 58.8168 405.215 58.6588 404.935C56.0954 400.311 48.5077 386.485 41.4647 372.153C33.8988 356.75 26.9516 340.764 27.5367 334.978C27.3561 336.282 22.1185 376.064 43.0168 404.935Z" fill="#F0F0F0"/>
<path d="M491.1 325.08H275.159C274.099 325.079 273.083 324.657 272.333 323.908C271.584 323.159 271.162 322.143 271.161 321.084V267.544C271.162 266.485 271.584 265.469 272.333 264.72C273.083 263.971 274.099 263.549 275.159 263.548H491.1C492.16 263.549 493.176 263.971 493.926 264.72C494.675 265.469 495.097 266.485 495.099 267.544V321.083C495.097 322.143 494.676 323.159 493.926 323.908C493.176 324.657 492.16 325.079 491.1 325.08ZM275.159 265.143C274.524 265.145 273.915 265.398 273.466 265.847C273.017 266.296 272.764 266.904 272.762 267.539V321.078C272.764 321.713 273.017 322.321 273.466 322.77C273.915 323.219 274.524 323.472 275.159 323.474H491.1C491.735 323.472 492.344 323.22 492.794 322.771C493.243 322.321 493.496 321.713 493.497 321.078V267.544C493.496 266.909 493.243 266.301 492.794 265.852C492.344 265.403 491.735 265.15 491.1 265.149L275.159 265.143Z" fill="#6688A9"/>
<path d="M254.776 389.699C263.772 389.699 271.065 382.41 271.065 373.418C271.065 364.426 263.772 357.137 254.776 357.137C245.78 357.137 238.487 364.426 238.487 373.418C238.487 382.41 245.78 389.699 254.776 389.699Z" fill="#E6E6E6"/>
<path d="M292.397 363.126C291.677 363.126 290.987 363.412 290.478 363.921C289.969 364.43 289.683 365.12 289.683 365.84C289.683 366.559 289.969 367.249 290.478 367.758C290.987 368.267 291.677 368.553 292.397 368.553H420.385C420.742 368.554 421.095 368.484 421.425 368.348C421.754 368.213 422.054 368.013 422.307 367.762C422.559 367.511 422.76 367.212 422.897 366.883C423.034 366.554 423.105 366.201 423.106 365.845C423.106 365.489 423.037 365.136 422.901 364.806C422.765 364.477 422.566 364.177 422.314 363.925C422.063 363.672 421.764 363.472 421.435 363.335C421.106 363.198 420.753 363.127 420.396 363.126H292.397Z" fill="#E6E6E6"/>
<path d="M292.397 379.408C291.677 379.407 290.986 379.691 290.476 380.199C289.966 380.707 289.679 381.396 289.677 382.116C289.676 382.836 289.96 383.526 290.469 384.036C290.977 384.546 291.667 384.833 292.387 384.835H347.471C348.191 384.835 348.882 384.549 349.391 384.04C349.9 383.531 350.186 382.841 350.186 382.121C350.186 381.402 349.9 380.712 349.391 380.203C348.882 379.694 348.191 379.408 347.471 379.408H292.397Z" fill="#E6E6E6"/>
<path d="M308.711 310.335C317.707 310.335 325 303.046 325 294.054C325 285.063 317.707 277.773 308.711 277.773C299.715 277.773 292.422 285.063 292.422 294.054C292.422 303.046 299.715 310.335 308.711 310.335Z" fill="#E6E6E6"/>
<path d="M346.332 283.762C345.612 283.762 344.922 284.048 344.413 284.557C343.904 285.066 343.618 285.756 343.618 286.476C343.618 287.195 343.904 287.886 344.413 288.394C344.922 288.903 345.612 289.189 346.332 289.189H474.32C475.04 289.189 475.731 288.903 476.24 288.394C476.749 287.886 477.035 287.195 477.035 286.476C477.035 285.756 476.749 285.066 476.24 284.557C475.731 284.048 475.04 283.762 474.32 283.762H346.332Z" fill="#E6E6E6"/>
<path d="M346.332 300.044C345.612 300.044 344.922 300.33 344.413 300.839C343.904 301.347 343.618 302.038 343.618 302.757C343.618 303.477 343.904 304.167 344.413 304.676C344.922 305.185 345.612 305.471 346.332 305.471H401.406C402.126 305.471 402.817 305.185 403.326 304.676C403.835 304.167 404.121 303.477 404.121 302.757C404.121 302.038 403.835 301.347 403.326 300.839C402.817 300.33 402.126 300.044 401.406 300.044H346.332Z" fill="#E6E6E6"/>
<path d="M449.15 192.558H233.21C232.15 192.556 231.133 192.135 230.384 191.386C229.634 190.636 229.212 189.621 229.211 188.561V3.99664C229.212 2.93709 229.634 1.92133 230.384 1.17212C231.133 0.422903 232.15 0.00138672 233.21 0H449.15C450.21 0.00138672 451.227 0.422903 451.976 1.17212C452.726 1.92133 453.148 2.93709 453.149 3.99664V188.56C453.148 189.62 452.726 190.636 451.976 191.385C451.227 192.134 450.21 192.556 449.15 192.557V192.558ZM233.21 1.59551C232.574 1.59689 231.965 1.84976 231.516 2.29878C231.067 2.7478 230.814 3.35639 230.813 3.9914V188.56C230.814 189.195 231.067 189.804 231.516 190.253C231.965 190.702 232.574 190.955 233.21 190.956H449.15C449.786 190.955 450.395 190.702 450.844 190.253C451.293 189.804 451.546 189.195 451.547 188.56V3.99664C451.546 3.36164 451.293 2.75304 450.844 2.30402C450.394 1.85501 449.786 1.60214 449.15 1.60075L233.21 1.59551Z" fill="#6688A9"/>
<path d="M266.762 48.7362C275.758 48.7362 283.051 41.447 283.051 32.4554C283.051 23.4637 275.758 16.1746 266.762 16.1746C257.766 16.1746 250.473 23.4637 250.473 32.4554C250.473 41.447 257.766 48.7362 266.762 48.7362Z" fill="#05386B"/>
<path d="M304.383 21.6013C303.663 21.6013 302.973 21.8872 302.464 22.396C301.954 22.9049 301.668 23.595 301.668 24.3147C301.668 25.0343 301.954 25.7244 302.464 26.2333C302.973 26.7421 303.663 27.028 304.383 27.028H432.371C433.091 27.028 433.782 26.7421 434.291 26.2333C434.8 25.7244 435.086 25.0343 435.086 24.3147C435.086 23.595 434.8 22.9049 434.291 22.396C433.782 21.8872 433.091 21.6013 432.371 21.6013H304.383Z" fill="#001835"/>
<path d="M304.383 37.8828C303.663 37.8828 302.973 38.1687 302.464 38.6775C301.954 39.1864 301.668 39.8765 301.668 40.5962C301.668 41.3158 301.954 42.0059 302.464 42.5148C302.973 43.0236 303.663 43.3095 304.383 43.3095H359.457C360.177 43.3095 360.867 43.0236 361.377 42.5148C361.886 42.0059 362.172 41.3158 362.172 40.5962C362.172 39.8765 361.886 39.1864 361.377 38.6775C360.867 38.1687 360.177 37.8828 359.457 37.8828H304.383Z" fill="#001835"/>
<path d="M174.683 390.322H158.202L148.464 253.307L148.09 288.122L112.133 383.958L97.8999 372.727L121.497 277.266L110.26 224.107H183.672L174.683 390.322Z" fill="#2F2E41"/>
<path d="M148.464 54.8973C159.221 54.8973 167.94 46.1818 167.94 35.4307C167.94 24.6796 159.221 15.9641 148.464 15.9641C137.707 15.9641 128.987 24.6796 128.987 35.4307C128.987 46.1818 137.707 54.8973 148.464 54.8973Z" fill="#FFB8B8"/>
<path d="M185.92 234.589C154.099 226.428 124.243 220.929 105.766 230.846C109.002 196.846 105.259 153.444 94.1549 108.082C90.5487 93.3484 92.9945 80.0722 106.14 72.4922L123.744 62.3845L150.712 63.1332L164.782 70.9139C171.663 74.3501 177.233 79.9368 180.647 86.8254C184.062 93.7141 185.134 101.528 183.7 109.081C176.139 148.843 180.225 191.758 185.92 234.589Z" fill="#6688A9"/>
<path d="M113.257 139.502L78.0493 137.256C80.8 102.639 88.6281 83.7147 100.522 77.3589L113.257 92.3332V139.502Z" fill="#6688A9"/>
<path d="M500.455 168.615H284.514C283.454 168.613 282.437 168.192 281.688 167.443C280.938 166.693 280.516 165.678 280.515 164.618V69.9002C280.516 68.8406 280.938 67.8247 281.688 67.0755C282.437 66.3262 283.454 65.9048 284.514 65.9036H500.455C501.515 65.9048 502.532 66.3262 503.281 67.0755C504.031 67.8247 504.453 68.8406 504.454 69.9002V164.618C504.453 165.678 504.031 166.693 503.281 167.443C502.532 168.192 501.515 168.613 500.455 168.615Z" fill="#05386B"/>
<path d="M328.491 98.9172C327.771 98.9172 327.08 99.2031 326.571 99.712C326.062 100.221 325.776 100.911 325.776 101.631C325.776 102.35 326.062 103.04 326.571 103.549C327.08 104.058 327.771 104.344 328.491 104.344H456.479C457.199 104.344 457.89 104.058 458.399 103.549C458.908 103.04 459.194 102.35 459.194 101.631C459.194 100.911 458.908 100.221 458.399 99.712C457.89 99.2031 457.199 98.9172 456.479 98.9172H328.491Z" fill="#F7FAFC"/>
<path d="M328.491 114.64C327.771 114.64 327.08 114.926 326.571 115.435C326.062 115.944 325.776 116.634 325.776 117.354C325.776 118.073 326.062 118.764 326.571 119.272C327.08 119.781 327.771 120.067 328.491 120.067H456.479C457.199 120.067 457.89 119.781 458.399 119.272C458.908 118.764 459.194 118.073 459.194 117.354C459.194 116.634 458.908 115.944 458.399 115.435C457.89 114.926 457.199 114.64 456.479 114.64H328.491Z" fill="#F7FAFC"/>
<path d="M328.491 130.173C327.771 130.173 327.08 130.459 326.571 130.968C326.062 131.477 325.776 132.167 325.776 132.886C325.776 133.606 326.062 134.296 326.571 134.805C327.08 135.314 327.771 135.6 328.491 135.6H383.564C384.284 135.6 384.975 135.314 385.484 134.805C385.993 134.296 386.279 133.606 386.279 132.886C386.279 132.167 385.993 131.477 385.484 130.968C384.975 130.459 384.284 130.173 383.564 130.173H328.491Z" fill="#F7FAFC"/>
<path d="M155.105 9.81483C153.29 9.62465 151.579 10.5897 149.794 10.9843C146.124 11.7884 142.363 10.1218 138.589 10.136C135.345 10.3204 132.19 11.2617 129.375 12.8846C127.099 13.9597 125.022 15.4131 123.233 17.1829C121.433 18.9813 120.385 21.3965 120.302 23.9386C120.551 25.3947 120.507 26.886 120.17 28.3246C119.79 29.0499 119.338 29.7356 118.822 30.3716C118.355 31.1209 118.057 31.9628 117.948 32.8389C117.839 33.715 117.923 34.6043 118.193 35.4449C118.949 37.1102 119.972 38.6411 121.221 39.9776C123.649 43.0915 125.171 46.8201 127.35 50.1249C128.3 51.5594 129.367 52.9139 130.539 54.1747C130.73 54.3981 130.964 54.5817 131.226 54.7153C131.484 54.806 131.758 54.8457 132.031 54.8321C136.653 54.9639 141.437 55.0657 145.694 53.2531C147.057 52.7805 148.215 51.8506 148.97 50.6213C149.584 48.9348 149.696 47.1065 149.292 45.3579C149.098 43.4103 149.142 41.4465 149.423 39.5096C149.443 38.8555 149.71 38.2333 150.172 37.7696C150.522 37.5528 150.922 37.4318 151.333 37.4186C151.743 37.4055 152.15 37.5007 152.513 37.6947C153.236 38.0754 154.025 38.3135 154.839 38.3963C156.433 38.3963 157.442 36.5829 157.765 35.0039C157.589 33.5848 157.799 32.1447 158.373 30.835C158.947 29.5253 159.864 28.3945 161.027 27.5616C162.123 26.1716 162.875 24.543 163.223 22.8079C163.571 21.0728 163.506 19.2801 163.031 17.5753C161.98 14.2892 158.762 10.1802 155.105 9.81483Z" fill="#2F2E41"/>
<path d="M437.164 404.444H221.224C220.164 404.443 219.147 404.021 218.398 403.272C217.648 402.523 217.226 401.507 217.225 400.447V346.908C217.226 345.849 217.648 344.833 218.398 344.083C219.147 343.334 220.164 342.913 221.224 342.912H437.164C438.224 342.913 439.241 343.335 439.99 344.084C440.74 344.833 441.162 345.849 441.163 346.908V400.447C441.162 401.506 440.74 402.522 439.99 403.271C439.241 404.02 438.224 404.443 437.164 404.444ZM221.224 344.507C220.588 344.509 219.98 344.761 219.53 345.21C219.081 345.659 218.828 346.268 218.827 346.903V400.441C218.828 401.076 219.081 401.685 219.53 402.134C219.98 402.583 220.588 402.836 221.224 402.837H437.164C437.8 402.836 438.409 402.583 438.858 402.134C439.307 401.685 439.56 401.076 439.561 400.441V346.908C439.56 346.273 439.307 345.665 438.858 345.216C438.409 344.767 437.8 344.514 437.164 344.512L221.224 344.507Z" fill="#6688A9"/>
<path d="M192.456 208.455L185.171 131.266L163.447 132.015L180.644 208.24C179.24 209.417 178.23 210.994 177.748 212.76C177.266 214.526 177.336 216.397 177.946 218.123C178.557 219.849 179.681 221.348 181.167 222.418C182.653 223.489 184.43 224.08 186.262 224.114C188.093 224.147 189.891 223.621 191.415 222.606C192.939 221.59 194.117 220.134 194.79 218.431C195.464 216.728 195.601 214.861 195.184 213.078C194.767 211.296 193.815 209.683 192.456 208.455Z" fill="#FFB8B8"/>
<path d="M192.661 132.764L159.7 140.251L158.202 86.3435L176.93 87.0922L192.661 132.764Z" fill="#6688A9"/>
<path d="M157.681 388.973L181.588 388.972H181.589C185.629 388.973 189.504 390.577 192.361 393.433C195.219 396.288 196.824 400.161 196.824 404.2V404.695L157.681 404.696L157.681 388.973Z" fill="#2F2E41"/>
<path d="M97.6358 370.054L117.734 382.995L117.734 382.995C121.131 385.183 123.519 388.629 124.374 392.576C125.228 396.523 124.479 400.648 122.291 404.043L122.022 404.459L89.1167 383.272L97.6358 370.054Z" fill="#2F2E41"/>
<path d="M553 404.502H0V406H553V404.502Z" fill="#05386B"/>
</g>
<defs>
<clipPath id="clip0_125_2064">
<rect width="553" height="406" fill="white"/>
</clipPath>
</defs>
</svg>
