<svg width="555" height="466" viewBox="0 0 555 466" fill="none" xmlns="http://www.w3.org/2000/svg">
<g clip-path="url(#clip0_107_5813)">
<path d="M361.288 460.789L257.32 273.13C257.291 272.671 257.149 272.226 256.907 271.835C256.665 271.443 256.33 271.118 255.933 270.887C255.477 270.625 254.956 270.499 254.431 270.524C254.414 270.522 254.397 270.524 254.38 270.523C254.363 270.524 254.346 270.522 254.329 270.524C253.618 270.49 252.922 270.734 252.385 271.203C251.849 271.672 251.515 272.33 251.452 273.04L141.262 460.789C141.078 461.107 140.959 461.459 140.911 461.823C140.863 462.188 140.887 462.558 140.982 462.913C141.077 463.268 141.24 463.601 141.464 463.892C141.687 464.184 141.966 464.429 142.284 464.612C142.602 464.796 142.953 464.915 143.317 464.963C143.681 465.011 144.051 464.987 144.405 464.892C144.76 464.796 145.092 464.632 145.383 464.408C145.674 464.185 145.919 463.905 146.102 463.587L254.306 279.224L356.448 463.587C356.631 463.905 356.875 464.185 357.167 464.408C357.458 464.632 357.79 464.796 358.145 464.892C358.499 464.987 358.869 465.011 359.233 464.963C359.597 464.915 359.948 464.796 360.266 464.612C360.584 464.429 360.863 464.184 361.086 463.892C361.309 463.601 361.473 463.268 361.568 462.913C361.663 462.558 361.687 462.188 361.639 461.823C361.591 461.459 361.472 461.107 361.288 460.789Z" fill="#6688A9"/>
<path d="M237.152 428.592L248.904 425.893L244.097 379.23L226.753 383.214L237.152 428.592Z" fill="#FFB6B6"/>
<path d="M246.238 406.05L229.514 409.891L224.167 399.429L223.864 399.058C221.492 396.143 220.175 392.51 220.129 388.751L206.228 351.941L205.092 351.4C204.212 350.981 203.433 350.379 202.804 349.635C202.176 348.89 201.713 348.02 201.447 347.082C201.181 346.145 201.118 345.161 201.262 344.197C201.406 343.233 201.754 342.311 202.283 341.492L200.811 337.595L159.288 337.672L159.247 337.66L108.257 323.341L113.611 291.39L127.954 300.422C132.68 300.115 213.644 295.139 221.123 313.303C227.784 329.479 237.382 357.114 244.26 377.449C244.604 378.362 245.03 379.241 245.534 380.076C246.604 381.726 247.232 383.624 247.358 385.587C247.439 386.441 247.602 387.286 247.844 388.109C250.703 396.665 246.347 405.824 246.303 405.916L246.238 406.05Z" fill="black"/>
<path d="M233.182 424.691L237.003 423.813L250.529 414.314L259.915 418.55L259.916 418.55C264.434 417.512 269.179 418.314 273.107 420.779C277.035 423.244 279.824 427.169 280.86 431.692L280.987 432.247L237.218 442.3L233.182 424.691Z" fill="black"/>
<path d="M59.6715 425.739C60.8663 412.719 68.4841 399.684 80.7021 395.067C76.2585 408.571 76.7293 423.213 82.0313 436.403C84.0945 441.482 86.9176 446.917 85.2982 452.155C84.2907 455.414 81.6521 457.968 78.6636 459.608C75.675 461.248 72.3269 462.091 69.0205 462.919L68.3826 463.482C62.7138 451.704 58.4767 438.758 59.6715 425.739Z" fill="#F0F0F0"/>
<path d="M80.8325 395.308C73.8974 403.609 69.7512 413.887 68.9829 424.681C68.7763 427.002 68.9364 429.341 69.4573 431.612C70.0362 433.808 71.1918 435.808 72.8042 437.406C74.2776 438.925 75.9606 440.309 77.0394 442.161C77.5775 443.117 77.9078 444.176 78.0083 445.269C78.1089 446.362 77.9776 447.463 77.623 448.502C76.8068 451.112 75.1023 453.274 73.362 455.329C71.4298 457.611 69.3867 459.951 68.6295 462.919C68.5377 463.278 67.9858 463.115 68.0774 462.756C69.3948 457.593 74.2619 454.527 76.4796 449.844C77.5144 447.658 77.8976 445.148 76.79 442.911C75.8215 440.956 74.0872 439.528 72.582 438.002C70.9863 436.467 69.7903 434.563 69.0987 432.459C68.4639 430.222 68.2141 427.893 68.3598 425.572C68.6047 420.341 69.6695 415.182 71.5153 410.283C73.5909 404.679 76.6086 399.473 80.4379 394.888C80.6751 394.604 81.0681 395.026 80.8325 395.308Z" fill="#F7FAFC"/>
<path d="M69.0259 421.191C67.2344 420.816 65.6343 419.816 64.5114 418.369C63.3885 416.922 62.8159 415.122 62.8959 413.292C62.8999 413.217 62.9326 413.147 62.9872 413.096C63.0418 413.045 63.1141 413.017 63.1887 413.019C63.2633 413.02 63.3345 413.05 63.3873 413.103C63.4401 413.156 63.4703 413.227 63.4716 413.302C63.3939 415.006 63.9274 416.683 64.9758 418.028C66.0242 419.373 67.5184 420.299 69.1888 420.638C69.5516 420.712 69.3867 421.264 69.0259 421.191Z" fill="#F7FAFC"/>
<path d="M71.9557 436.734C75.1048 434.711 77.3768 431.575 78.3186 427.95C78.4116 427.591 78.9636 427.754 78.8707 428.113C77.8836 431.883 75.5126 435.142 72.2309 437.24C71.918 437.439 71.6445 436.932 71.9557 436.734Z" fill="#F7FAFC"/>
<path d="M74.1422 405.208C74.8052 405.497 75.5296 405.618 76.2505 405.558C76.9715 405.498 77.6662 405.26 78.2724 404.864C78.5827 404.661 78.8559 405.168 78.5477 405.371C77.8759 405.804 77.1083 406.066 76.3119 406.134C75.5156 406.202 74.7148 406.074 73.9794 405.76C73.9076 405.737 73.8475 405.686 73.8114 405.62C73.7752 405.554 73.7657 405.476 73.7847 405.403C73.8067 405.329 73.8565 405.268 73.9235 405.232C73.9904 405.195 74.069 405.186 74.1422 405.208Z" fill="#F7FAFC"/>
<path d="M119.1 417.018C118.91 417.15 118.72 417.283 118.53 417.42C115.983 419.217 113.586 421.217 111.363 423.402C111.189 423.568 111.014 423.739 110.845 423.91C105.545 429.231 101.278 435.491 98.2608 442.372C97.0627 445.111 96.0745 447.937 95.3047 450.827C94.2419 454.817 93.4066 459.228 91.1554 462.536C90.9244 462.883 90.6721 463.217 90.3999 463.533L69.1189 464.217C69.0697 464.195 69.0205 464.177 68.9711 464.154L68.1227 464.22C68.152 464.069 68.1856 463.912 68.2149 463.76C68.2316 463.672 68.2529 463.584 68.2696 463.495C68.2822 463.437 68.295 463.378 68.303 463.324C68.3071 463.304 68.3115 463.285 68.3157 463.27C68.3238 463.216 68.3369 463.167 68.3451 463.118C68.5308 462.241 68.7229 461.364 68.9216 460.487C68.9214 460.482 68.9214 460.482 68.926 460.477C70.3758 453.777 72.6144 447.273 75.5949 441.101C75.6863 440.918 75.7773 440.73 75.8785 440.547C77.2626 437.813 78.8676 435.196 80.6775 432.724C81.6729 431.373 82.7359 430.074 83.8625 428.831C86.7797 425.625 90.1824 422.898 93.946 420.751C101.449 416.471 110.236 414.641 118.473 416.843C118.683 416.9 118.889 416.956 119.1 417.018Z" fill="#F0F0F0"/>
<path d="M119.061 417.29C108.532 419.737 99.0401 425.444 91.9349 433.6C90.3742 435.329 89.0954 437.293 88.1456 439.42C87.2872 441.522 87.0068 443.816 87.3335 446.063C87.596 448.165 88.1077 450.284 87.8554 452.413C87.7101 453.5 87.3367 454.545 86.7598 455.478C86.1829 456.411 85.4155 457.212 84.5078 457.827C82.2861 459.42 79.6254 460.118 76.9998 460.71C74.0845 461.368 71.046 462.005 68.6566 463.918C68.3671 464.15 68.0248 463.686 68.3139 463.455C72.4709 460.127 78.2004 460.613 82.7878 458.21C84.9283 457.089 86.7443 455.315 87.2048 452.862C87.6074 450.717 87.0817 448.531 86.7975 446.405C86.4467 444.218 86.6364 441.977 87.3498 439.88C88.1884 437.711 89.3895 435.701 90.9016 433.936C94.2428 429.907 98.1958 426.429 102.616 423.63C107.643 420.407 113.184 418.069 118.998 416.717C119.358 416.633 119.419 417.207 119.061 417.29Z" fill="#F7FAFC"/>
<path d="M94.0682 430.839C92.8632 429.46 92.1872 427.697 92.1608 425.865C92.1345 424.033 92.7595 422.251 93.9242 420.838C94.1609 420.552 94.6147 420.907 94.3777 421.193C93.2906 422.507 92.7086 424.167 92.7366 425.873C92.7647 427.579 93.4009 429.219 94.5306 430.496C94.7758 430.774 94.312 431.116 94.0682 430.839Z" fill="#F7FAFC"/>
<path d="M87.0601 445.015C90.7908 445.298 94.4911 444.164 97.4232 441.837C97.7135 441.606 98.0559 442.069 97.766 442.3C94.7103 444.715 90.8572 445.888 86.9755 445.585C86.6056 445.556 86.6922 444.986 87.0601 445.015Z" fill="#F7FAFC"/>
<path d="M107.765 421.161C108.121 421.792 108.627 422.325 109.238 422.712C109.85 423.098 110.548 423.327 111.27 423.377C111.64 423.401 111.553 423.971 111.185 423.947C110.388 423.888 109.617 423.635 108.941 423.209C108.264 422.783 107.702 422.198 107.303 421.505C107.26 421.442 107.242 421.366 107.253 421.291C107.264 421.216 107.304 421.148 107.363 421.101C107.424 421.056 107.501 421.037 107.576 421.049C107.652 421.06 107.72 421.1 107.765 421.161Z" fill="#F7FAFC"/>
<path d="M407.851 425.739C406.656 412.719 399.038 399.684 386.82 395.067C391.264 408.571 390.793 423.213 385.491 436.403C383.428 441.482 380.605 446.917 382.224 452.155C383.232 455.414 385.87 457.968 388.859 459.608C391.847 461.248 395.195 462.091 398.502 462.919L399.14 463.482C404.808 451.704 409.045 438.758 407.851 425.739Z" fill="#F0F0F0"/>
<path d="M386.69 395.308C393.625 403.609 397.771 413.887 398.539 424.681C398.746 427.002 398.586 429.341 398.065 431.612C397.486 433.808 396.33 435.808 394.718 437.406C393.244 438.925 391.562 440.309 390.483 442.161C389.945 443.117 389.614 444.176 389.514 445.269C389.413 446.362 389.545 447.463 389.899 448.502C390.715 451.112 392.42 453.274 394.16 455.329C396.092 457.611 398.135 459.951 398.893 462.919C398.984 463.278 399.536 463.115 399.445 462.756C398.127 457.593 393.26 454.527 391.043 449.844C390.008 447.658 389.625 445.148 390.732 442.911C391.701 440.956 393.435 439.528 394.94 438.002C396.536 436.467 397.732 434.563 398.423 432.459C399.058 430.222 399.308 427.893 399.162 425.572C398.917 420.341 397.853 415.182 396.007 410.283C393.931 404.679 390.914 399.473 387.084 394.888C386.847 394.604 386.454 395.026 386.69 395.308Z" fill="#F7FAFC"/>
<path d="M398.496 421.191C400.288 420.816 401.888 419.816 403.011 418.369C404.134 416.922 404.706 415.122 404.626 413.292C404.622 413.217 404.589 413.147 404.535 413.096C404.48 413.045 404.408 413.017 404.333 413.019C404.259 413.02 404.188 413.05 404.135 413.103C404.082 413.156 404.052 413.227 404.051 413.302C404.128 415.007 403.595 416.683 402.546 418.028C401.498 419.373 400.004 420.299 398.333 420.638C397.97 420.712 398.135 421.265 398.496 421.191Z" fill="#F7FAFC"/>
<path d="M395.566 436.734C392.417 434.711 390.145 431.575 389.203 427.95C389.11 427.591 388.558 427.754 388.651 428.113C389.638 431.883 392.009 435.142 395.291 437.24C395.604 437.439 395.878 436.932 395.566 436.734Z" fill="#F7FAFC"/>
<path d="M393.38 405.208C392.717 405.497 391.992 405.618 391.272 405.558C390.551 405.498 389.856 405.26 389.25 404.864C388.939 404.661 388.666 405.168 388.974 405.371C389.646 405.804 390.414 406.066 391.21 406.134C392.007 406.202 392.807 406.074 393.543 405.76C393.615 405.737 393.675 405.686 393.711 405.62C393.747 405.554 393.756 405.476 393.737 405.403C393.715 405.329 393.666 405.268 393.599 405.232C393.532 405.195 393.453 405.186 393.38 405.208Z" fill="#F7FAFC"/>
<path d="M348.422 417.018C348.612 417.15 348.802 417.283 348.992 417.42C351.539 419.217 353.936 421.217 356.159 423.402C356.333 423.568 356.508 423.739 356.677 423.91C361.977 429.231 366.244 435.491 369.261 442.372C370.459 445.111 371.448 447.937 372.217 450.827C373.28 454.817 374.116 459.228 376.367 462.536C376.598 462.883 376.85 463.217 377.122 463.533L398.403 464.217C398.452 464.195 398.502 464.177 398.551 464.154L399.399 464.22C399.37 464.069 399.337 463.912 399.307 463.76C399.291 463.672 399.269 463.584 399.253 463.495C399.24 463.437 399.227 463.378 399.219 463.324C399.215 463.304 399.211 463.285 399.206 463.27C399.198 463.216 399.185 463.167 399.177 463.118C398.991 462.241 398.799 461.364 398.601 460.487C398.601 460.482 398.601 460.482 398.596 460.477C397.146 453.777 394.908 447.273 391.927 441.101C391.836 440.918 391.745 440.73 391.644 440.547C390.26 437.813 388.655 435.196 386.845 432.724C385.849 431.373 384.786 430.074 383.66 428.831C380.742 425.625 377.34 422.898 373.576 420.751C366.073 416.471 357.286 414.641 349.05 416.843C348.839 416.9 348.633 416.956 348.422 417.018Z" fill="#F0F0F0"/>
<path d="M348.461 417.29C358.991 419.737 368.482 425.444 375.587 433.6C377.148 435.329 378.427 437.293 379.377 439.42C380.235 441.522 380.515 443.816 380.189 446.063C379.926 448.165 379.415 450.284 379.667 452.413C379.812 453.5 380.186 454.545 380.762 455.478C381.339 456.411 382.107 457.212 383.014 457.827C385.236 459.42 387.897 460.118 390.522 460.71C393.438 461.368 396.476 462.005 398.866 463.918C399.155 464.15 399.497 463.686 399.208 463.455C395.051 460.126 389.322 460.613 384.735 458.21C382.594 457.089 380.778 455.315 380.317 452.862C379.915 450.717 380.441 448.531 380.725 446.405C381.076 444.218 380.886 441.977 380.172 439.88C379.334 437.711 378.133 435.701 376.621 433.936C373.279 429.907 369.326 426.429 364.906 423.63C359.879 420.407 354.338 418.069 348.524 416.717C348.164 416.633 348.104 417.207 348.461 417.29Z" fill="#F7FAFC"/>
<path d="M373.454 430.839C374.659 429.46 375.335 427.697 375.361 425.865C375.388 424.033 374.763 422.251 373.598 420.838C373.361 420.552 372.907 420.907 373.144 421.193C374.231 422.507 374.813 424.167 374.785 425.873C374.757 427.579 374.121 429.219 372.991 430.496C372.746 430.774 373.21 431.116 373.454 430.839Z" fill="#F7FAFC"/>
<path d="M380.462 445.015C376.731 445.298 373.031 444.164 370.099 441.837C369.809 441.606 369.466 442.069 369.756 442.3C372.812 444.715 376.665 445.888 380.547 445.585C380.917 445.556 380.83 444.986 380.462 445.015Z" fill="#F7FAFC"/>
<path d="M359.757 421.161C359.402 421.792 358.895 422.325 358.284 422.712C357.672 423.098 356.974 423.327 356.253 423.377C355.882 423.401 355.969 423.971 356.337 423.947C357.134 423.888 357.905 423.635 358.581 423.209C359.258 422.783 359.82 422.198 360.219 421.505C360.262 421.442 360.28 421.366 360.269 421.291C360.258 421.216 360.219 421.148 360.159 421.101C360.098 421.056 360.021 421.037 359.946 421.049C359.87 421.06 359.802 421.1 359.757 421.161Z" fill="#F7FAFC"/>
<path d="M555 465.26C555 465.456 554.922 465.644 554.783 465.783C554.645 465.921 554.457 465.999 554.261 466H0.739268C0.543267 466 0.355292 465.922 0.216698 465.783C0.0781042 465.645 0.000244141 465.456 0.000244141 465.26C0.000244141 465.064 0.0781042 464.876 0.216698 464.737C0.355292 464.598 0.543267 464.52 0.739268 464.52H554.261C554.457 464.521 554.645 464.599 554.783 464.737C554.922 464.876 555 465.064 555 465.26Z" fill="#5CDB95"/>
<path d="M356.539 179.056C358.083 179.056 359.334 177.804 359.334 176.258C359.334 174.713 358.083 173.461 356.539 173.461C354.996 173.461 353.745 174.713 353.745 176.258C353.745 177.804 354.996 179.056 356.539 179.056Z" fill="#6688A9"/>
<path d="M321.545 197.809L359.221 174.112C359.562 173.898 359.942 173.755 360.34 173.692C360.737 173.629 361.144 173.647 361.534 173.746C361.924 173.844 362.291 174.021 362.611 174.265C362.931 174.509 363.198 174.816 363.397 175.167C363.595 175.517 363.721 175.904 363.765 176.305C363.81 176.705 363.774 177.111 363.657 177.497C363.541 177.882 363.348 178.241 363.09 178.55C362.832 178.859 362.514 179.112 362.155 179.295L322.491 199.479C322.27 199.591 322.016 199.614 321.779 199.543C321.542 199.471 321.342 199.312 321.221 199.096C321.099 198.881 321.065 198.627 321.125 198.387C321.185 198.148 321.336 197.94 321.545 197.809Z" fill="#E4E4E4"/>
<path d="M245.96 248.833C245.663 248.391 245.508 247.869 245.516 247.337C245.523 246.805 245.693 246.288 246.003 245.855C246.64 245 247.489 244.326 248.466 243.899C250.482 242.872 252.653 242.185 254.892 241.866C256.594 241.624 258.452 241.547 259.772 240.445C261.083 239.35 261.814 237.303 263.514 237.132C265.156 236.967 266.419 238.767 268.066 238.879C270.097 239.016 271.426 236.638 273.402 236.15C274.724 235.823 276.084 236.399 277.324 236.963L284.769 240.344L288.584 242.077C289.917 242.682 291.42 243.497 291.672 244.941C292.018 246.924 289.815 248.323 287.931 249.027C274.479 253.997 259.697 253.999 246.244 249.033" fill="#5CDB95"/>
<path d="M257.175 285.371C311.195 285.371 354.987 279.108 354.987 271.382C354.987 263.656 311.195 257.393 257.175 257.393C203.155 257.393 159.363 263.656 159.363 271.382C159.363 279.108 203.155 285.371 257.175 285.371Z" fill="#6688A9"/>
<path d="M455.593 358.112H388.522C385.435 358.112 382.933 360.618 382.933 363.708C382.933 366.798 385.435 369.303 388.522 369.303H455.593C458.68 369.303 461.182 366.798 461.182 363.708C461.182 360.618 458.68 358.112 455.593 358.112Z" fill="#6688A9"/>
<path d="M488.097 258.351L465.945 363.702L471.715 390.666L482.608 441.554V464.427C482.609 464.458 482.607 464.489 482.602 464.52C482.598 465.026 482.505 465.527 482.328 466H473.572C473.395 465.527 473.302 465.026 473.298 464.52C473.293 464.489 473.291 464.458 473.292 464.427V442.536L463.406 396.348L461.406 387.022L457.537 368.949L456.419 363.714V363.708L457.524 358.46L458.375 354.413L478.981 256.436C479.106 255.836 479.348 255.267 479.693 254.761C480.038 254.255 480.479 253.822 480.991 253.486C481.504 253.151 482.077 252.92 482.678 252.807C483.28 252.693 483.898 252.7 484.496 252.825C485.095 252.951 485.664 253.194 486.169 253.54C486.674 253.886 487.106 254.328 487.441 254.841C487.775 255.354 488.005 255.928 488.118 256.53C488.231 257.133 488.224 257.751 488.097 258.351Z" fill="#6688A9"/>
<path d="M393.18 363.708V464.427C393.181 464.458 393.179 464.489 393.174 464.52C393.17 465.026 393.077 465.527 392.9 466H384.144C383.967 465.527 383.874 465.026 383.87 464.52C383.865 464.489 383.863 464.458 383.864 464.427V363.708C383.864 362.471 384.355 361.285 385.228 360.411C386.102 359.536 387.287 359.045 388.522 359.045C389.757 359.045 390.942 359.536 391.815 360.411C392.689 361.285 393.18 362.471 393.18 363.708Z" fill="#6688A9"/>
<path d="M399.701 346.921H444.415C448.862 346.921 453.127 348.69 456.271 351.838C459.416 354.986 461.182 359.256 461.182 363.708H382.933C382.933 359.256 384.699 354.986 387.844 351.838C390.989 348.69 395.253 346.921 399.701 346.921Z" fill="#6688A9"/>
<path d="M466.772 396.348H388.522C387.287 396.348 386.102 395.857 385.229 394.983C384.355 394.108 383.864 392.922 383.864 391.685C383.864 390.449 384.355 389.263 385.229 388.388C386.102 387.514 387.287 387.022 388.522 387.022H466.772C468.007 387.022 469.192 387.514 470.065 388.388C470.939 389.263 471.429 390.449 471.429 391.685C471.429 392.922 470.939 394.108 470.065 394.983C469.192 395.857 468.007 396.348 466.772 396.348Z" fill="#6688A9"/>
<path d="M102.793 369.473H181.72C184.807 369.473 187.309 366.968 187.309 363.877V362.182C187.309 359.092 184.807 356.586 181.72 356.586H102.793C99.706 356.586 97.2036 359.092 97.2036 362.182V363.877C97.2036 366.968 99.706 369.473 102.793 369.473Z" fill="#6688A9"/>
<path d="M101.98 363.105L100.551 368.999L95.3101 390.585L93.0497 399.911L82.5541 443.17V461.94C82.5569 462.859 82.2844 463.758 81.7718 464.52C81.3688 465.137 80.8208 465.645 80.1758 466H75.6173C74.9724 465.645 74.4244 465.137 74.0214 464.52C73.5087 463.758 73.2361 462.859 73.2387 461.94V442.051L84.9018 393.992L92.4287 362.956L66.9044 241.564C66.7781 240.965 66.771 240.347 66.8835 239.745C66.9959 239.143 67.2258 238.569 67.56 238.056C67.8941 237.543 68.3259 237.102 68.8308 236.756C69.3357 236.41 69.9036 236.167 70.5022 236.042C71.1009 235.916 71.7184 235.909 72.3195 236.023C72.9206 236.136 73.4935 236.367 74.0055 236.702C74.5174 237.037 74.9584 237.469 75.3032 237.975C75.648 238.481 75.8898 239.05 76.0148 239.649L99.6078 351.827L100.695 357L101.961 363.03L101.98 363.105Z" fill="#6688A9"/>
<path d="M185.533 363.03V461.94C185.536 462.859 185.263 463.758 184.75 464.52C184.347 465.137 183.799 465.645 183.155 466H178.59C177.948 465.643 177.402 465.135 177 464.52C176.487 463.758 176.215 462.859 176.218 461.94V363.03C176.218 361.794 176.708 360.608 177.582 359.733C178.455 358.859 179.64 358.367 180.875 358.367C182.111 358.367 183.295 358.859 184.169 359.733C185.042 360.608 185.533 361.794 185.533 363.03Z" fill="#6688A9"/>
<path d="M187.309 363.03H97.2037V360.486C97.2037 358.282 97.6374 356.099 98.4801 354.062C99.3227 352.026 100.558 350.175 102.115 348.616C103.672 347.058 105.52 345.821 107.555 344.978C109.589 344.134 111.769 343.7 113.971 343.7H170.541C174.989 343.7 179.253 345.468 182.398 348.616C185.543 351.765 187.309 356.034 187.309 360.486L187.309 363.03Z" fill="#6688A9"/>
<path d="M180.873 399.909H90.7676C89.5323 399.909 88.3476 399.418 87.4741 398.543C86.6006 397.669 86.1099 396.483 86.1099 395.246C86.1099 394.009 86.6006 392.823 87.4741 391.949C88.3476 391.074 89.5323 390.583 90.7676 390.583H180.873C182.108 390.583 183.293 391.074 184.167 391.949C185.04 392.823 185.531 394.009 185.531 395.246C185.531 396.483 185.04 397.669 184.167 398.543C183.293 399.418 182.108 399.909 180.873 399.909Z" fill="#6688A9"/>
<path d="M296.673 440.584L286.884 435.897L300.331 394.933L314.78 401.85L296.673 440.584Z" fill="#9E616A"/>
<path d="M363.017 436.874L352.49 439.474L337.239 399.157L352.775 395.319L363.017 436.874Z" fill="#9E616A"/>
<path d="M322.67 262.533C324.067 264.803 326.294 266.437 328.877 267.086C331.46 267.735 334.194 267.347 336.496 266.005C336.958 265.725 337.397 265.407 337.808 265.054L368.757 282.835L367.413 264.582L338.229 250.495C336.641 248.898 334.568 247.874 332.336 247.583C330.104 247.292 327.839 247.75 325.895 248.887C324.776 249.56 323.803 250.45 323.033 251.505C322.263 252.559 321.711 253.758 321.41 255.03C321.11 256.301 321.067 257.62 321.283 258.909C321.499 260.198 321.971 261.43 322.67 262.533Z" fill="#9E616A"/>
<path d="M355.451 276.139L360.922 279.477L385.492 294.477C387.106 295.488 388.903 296.17 390.781 296.485C392.658 296.801 394.58 296.742 396.435 296.314C398.29 295.885 400.042 295.094 401.592 293.987C403.141 292.88 404.458 291.478 405.466 289.861C407.285 286.861 407.929 283.292 407.273 279.844L396.352 225.224C395.949 223.08 395.088 221.048 393.828 219.267C392.568 217.487 390.939 216 389.052 214.908C387.165 213.816 385.065 213.145 382.895 212.94C380.725 212.736 378.537 213.003 376.479 213.723C373.021 214.939 370.156 217.429 368.467 220.685C366.777 223.942 366.39 227.721 367.385 231.252L378.804 270.015L361.3 261.845L355.451 276.139Z" fill="#E6E6E6"/>
<path d="M342.516 425.576L325.671 391.755L325.673 391.677L327.336 329.644C327.357 329.092 327.402 328.538 327.469 327.993C327.763 325.505 328.548 323.102 329.779 320.921C331.011 318.741 332.663 316.828 334.641 315.294C336.535 313.81 338.704 312.719 341.024 312.084C343.343 311.449 345.766 311.283 348.15 311.595L396.317 317.835L397.988 310.997L398.299 310.884L444.45 293.951L444.716 294.384C450.76 304.23 454.986 323.897 456.137 329.69L456.153 329.774C456.178 329.896 456.192 329.97 456.197 329.991C458.573 339.877 448.756 356.254 438.977 358.715C418.377 363.972 399.954 359.872 378.622 355.123C370.972 353.42 363.067 351.66 354.359 350.138L354.617 355.268C354.83 359.218 355.649 363.11 357.047 366.809C358.6 371.362 359.826 374.957 357.233 382.455L355.978 386.082C356.629 387.882 356.853 389.809 356.633 391.711C356.412 393.613 355.754 395.438 354.709 397.042L354.456 397.428L365.565 425.569L342.516 425.576Z" fill="black"/>
<path d="M314.839 410.619L294.752 408.75L301.869 385.966C303.337 371.088 307.038 356.518 312.845 342.745L322.552 319.715C322.574 319.203 322.617 318.687 322.68 318.182C322.974 315.694 323.759 313.291 324.99 311.11C326.222 308.93 327.874 307.017 329.852 305.483C331.746 304 333.916 302.909 336.235 302.274C338.554 301.639 340.977 301.473 343.361 301.784L391.457 308.016L393.552 290.414L439.715 284.229L439.927 284.574C447.996 297.717 453.118 308.006 456.048 316.955C456.195 317.412 456.326 317.877 456.437 318.341C458.829 328.294 452.858 338.384 443.126 340.834C418.326 347.164 388.502 346.989 349.291 340.278L330.315 385.49C328.501 389.808 326.255 393.932 323.612 397.797L314.839 410.619Z" fill="black"/>
<path d="M384.906 182.376C397.757 182.376 408.175 171.714 408.175 158.562C408.175 145.41 397.757 134.749 384.906 134.749C372.056 134.749 361.638 145.41 361.638 158.562C361.638 171.714 372.056 182.376 384.906 182.376Z" fill="#9E616A"/>
<path d="M391.625 308.847L388.286 296.873L387.465 290.966L382.667 291.127L373.249 269.364L369.591 263.626C368.845 262.839 368.169 262.083 367.564 261.357C363.752 257.045 360.696 252.118 358.524 246.786C357.003 242.955 356.109 238.902 355.878 234.786C355.196 222.627 360.316 209.762 371.532 195.459C371.348 194.953 371.225 194.427 371.166 193.891C370.966 192.154 371.459 190.407 372.538 189.032C373.617 187.656 375.195 186.763 376.928 186.546L387.746 185.33C388.587 185.235 389.439 185.308 390.252 185.545C391.065 185.782 391.822 186.179 392.481 186.712C393.168 187.263 393.738 187.946 394.159 188.72C394.58 189.495 394.843 190.345 394.932 191.223C395.077 192.579 394.811 193.948 394.167 195.151C399.681 195.852 404.877 198.131 409.13 201.714C413.383 205.296 416.513 210.031 418.145 215.35C424.618 227.448 429.777 240.205 433.535 253.404C434.275 255.989 433.946 258.653 433.627 261.228C433.332 263.608 433.027 266.068 433.54 268.521C434.061 271.015 435.314 273.517 436.641 276.166C438.161 279.2 439.733 282.337 440.158 285.535L440.188 285.759L391.625 308.847Z" fill="#E4E4E4"/>
<path opacity="0.2" d="M358.812 246.668C360.974 251.969 364.013 256.868 367.802 261.158C368.451 261.933 369.136 262.695 369.853 263.459L373.534 269.241C387.102 259.059 398.096 218.969 398.096 218.969L382.787 215.988L358.812 246.668Z" fill="black"/>
<path d="M349.543 184.6C350.884 186.906 351.273 189.644 350.628 192.232C349.983 194.82 348.355 197.054 346.089 198.458C345.624 198.737 345.137 198.976 344.633 199.174L345.717 234.882L330.27 225.148L331.609 192.731C330.952 190.573 331.027 188.259 331.821 186.149C332.616 184.039 334.086 182.251 336.003 181.065C337.119 180.389 338.359 179.944 339.65 179.756C340.941 179.568 342.256 179.641 343.519 179.971C344.781 180.3 345.965 180.88 346.999 181.675C348.034 182.47 348.899 183.465 349.543 184.6Z" fill="#9E616A"/>
<path d="M347.074 221.403L330.088 223.821L330.818 259.037C330.861 261.549 331.544 264.008 332.803 266.182C334.063 268.355 335.856 270.17 338.014 271.454C340.649 273.006 343.717 273.659 346.756 273.314C349.794 272.968 352.638 271.644 354.859 269.539L394.962 230.923C397.783 228.243 399.472 224.583 399.68 220.695C399.889 216.807 398.601 212.987 396.082 210.02C394.836 208.543 393.305 207.331 391.582 206.458C389.859 205.584 387.978 205.066 386.052 204.934C384.125 204.802 382.191 205.058 380.365 205.689C378.539 206.319 376.858 207.31 375.422 208.604C375.026 208.958 374.649 209.334 374.293 209.73L347.813 240.227L347.074 221.403Z" fill="#E6E6E6"/>
<path d="M205.004 451.102L217.06 451.102L222.796 404.544L205.002 404.545L205.004 451.102Z" fill="#FFB6B6"/>
<path d="M136.664 183.067C149.954 183.067 160.728 172.281 160.728 158.976C160.728 145.671 149.954 134.885 136.664 134.885C123.374 134.885 112.6 145.671 112.6 158.976C112.6 172.281 123.374 183.067 136.664 183.067Z" fill="#FFB6B6"/>
<path d="M220.995 436.76H203.922L199.569 430.919L198.391 425.416L197.377 424.434C196.001 423.112 195.112 421.363 194.853 419.472C194.594 417.581 194.98 415.657 195.95 414.013L183.576 356.217C180.335 355.932 143.787 352.66 118.382 348.159C111.88 347.007 106.803 343.843 103.293 338.755C94.6688 326.252 98.3633 306.021 98.4016 305.818L98.4442 305.592L98.6721 305.566L158.014 298.898L158.094 298.936C160.063 299.87 206.411 321.898 213.985 329.48C217.405 332.904 225.035 353.247 226.744 374.874C227.049 378.749 225.948 382.694 224.883 386.51C223.887 390.081 222.857 393.772 223.06 397.263C223.374 402.648 223.672 408.297 223.945 414.053C223.989 414.97 224.679 415.919 225.346 416.837C226.044 417.796 226.702 418.701 226.744 419.649C227.15 428.841 221.149 436.565 221.088 436.642L220.995 436.76Z" fill="black"/>
<path d="M224.883 223.142C223.59 222.788 222.236 222.722 220.915 222.949C219.594 223.176 218.339 223.69 217.238 224.455C216.137 225.22 215.217 226.218 214.543 227.377C213.869 228.537 213.457 229.83 213.336 231.166L193.342 237.422L194.176 250.514L222.288 241.282C224.543 241.336 226.741 240.561 228.463 239.102C230.186 237.643 231.314 235.602 231.634 233.366C231.953 231.13 231.443 228.854 230.199 226.97C228.955 225.085 227.063 223.723 224.883 223.142Z" fill="#FFB6B6"/>
<path d="M211.837 244.805L196.894 250.467L196.512 251.209C195.596 252.989 194.011 254.331 192.107 254.94C190.202 255.55 188.134 255.377 186.357 254.46L152.769 267.187C152.769 267.187 137.769 252.16 127.09 238.749L130.729 216.337C131.572 211.137 133.364 206.137 136.015 201.586C157.916 206.394 170.488 237.044 170.488 237.044L209.96 229.504L211.837 244.805Z" fill="#5CDB95"/>
<path d="M133.244 181.779C127.22 183.408 120.578 181.243 115.877 177.135C111.175 173.027 108.235 167.206 106.54 161.194C105.299 156.79 104.71 151.902 106.669 147.768C108.627 143.634 113.898 140.845 117.965 142.934C115.456 140.008 116.709 135.168 119.639 132.665C122.569 130.162 126.592 129.444 130.424 129.052C135.984 128.483 141.728 128.419 147.02 130.223C152.311 132.026 157.119 135.969 158.775 141.314C160.467 142.102 162.372 142.307 164.192 141.896C166.012 141.484 167.644 140.48 168.833 139.041C169.139 140.694 168.893 142.402 168.132 143.901C167.371 145.4 166.138 146.607 164.624 147.333L172.731 144.702C174.126 147.656 171.682 151.313 168.558 152.26C165.434 153.206 162.061 152.171 159.096 150.805C156.131 149.438 153.258 147.709 150.038 147.176C146.817 146.643 143.034 147.679 141.545 150.587C140.765 152.11 140.724 153.893 140.271 155.544C139.818 157.194 138.67 158.905 136.966 159.04C135.889 159.126 134.835 158.551 133.761 158.669C132.43 158.814 131.411 160.022 131.057 161.314C130.789 162.632 130.786 163.989 131.047 165.308L133.107 181.067" fill="black"/>
<path d="M103.432 341.634C103.427 341.634 103.423 341.633 103.418 341.632L103.228 341.6L103.173 341.414C102.481 339.085 101.601 336.7 100.749 334.394C99.4953 331.2 98.4366 327.933 97.5789 324.61C96.9038 321.434 96.4358 318.217 96.1777 314.979C95.9402 312.629 95.6946 310.199 95.2769 307.806C95.0915 306.744 95.7942 305.738 96.4739 304.765C97.104 303.863 97.6993 303.011 97.5743 302.205C97.4466 301.381 96.5336 300.475 95.6506 299.6C94.6828 298.64 93.6819 297.648 93.5402 296.604C91.6113 282.354 90.7134 267.983 90.8537 253.603C91.0531 233.708 91.9512 220.147 93.523 213.296C97.7496 194.876 117.277 191.515 120.333 191.1C120.659 190.232 121.159 189.44 121.804 188.774C122.448 188.108 123.222 187.582 124.079 187.228C124.935 186.875 125.854 186.702 126.781 186.719C127.707 186.737 128.619 186.945 129.461 187.331L143.335 193.69C146.15 194.984 148.668 196.844 150.734 199.154C152.8 201.464 154.369 204.174 155.345 207.117L157.406 213.407L158.438 255.635L152.717 285.371L163.896 302.157C104.318 334.903 103.624 341.634 103.432 341.634Z" fill="#5CDB95"/>
<path d="M198.516 446.411L202.436 446.411L217.74 440.18L225.943 446.41H225.944C230.58 446.41 235.025 448.254 238.303 451.535C241.581 454.817 243.423 459.267 243.423 463.908V464.477L198.517 464.478L198.516 446.411Z" fill="black"/>
<path d="M229.889 253.275C228.733 252.596 227.443 252.179 226.109 252.053C224.775 251.927 223.429 252.096 222.167 252.547C220.905 252.998 219.757 253.72 218.804 254.663C217.851 255.607 217.116 256.748 216.651 258.006L195.719 258.823L192.898 268.584L222.656 270.109C224.82 270.751 227.143 270.576 229.186 269.618C231.229 268.659 232.85 266.984 233.741 264.909C234.633 262.833 234.733 260.503 234.023 258.359C233.313 256.215 231.842 254.406 229.889 253.275Z" fill="#FFB6B6"/>
<path d="M212.695 271.162L191.194 270.894L188.472 270.857L144.726 270.305C144.726 270.305 132.846 258.959 122.502 247.278L123.952 236.779C125.366 226.476 130.472 217.038 138.318 210.222C153.133 220.132 161.725 239.749 161.725 239.749L176.131 246.202C186.269 246.656 196.148 249.553 204.929 254.646L209.666 257.393L212.695 271.162Z" fill="#5CDB95"/>
<path d="M370.698 456.733L363.543 458.5L360.599 452.054L358.996 459.624L340.021 464.312C339.112 464.536 338.154 464.464 337.288 464.106C336.423 463.747 335.694 463.121 335.209 462.318C334.724 461.516 334.508 460.579 334.593 459.645C334.677 458.711 335.058 457.829 335.678 457.126L348.249 442.906L346.563 436.07L362.736 433.084L370.698 456.733Z" fill="black"/>
<path d="M294.907 458.943L288.084 456.155L289.495 449.209L283.747 454.383L265.653 446.989C264.785 446.634 264.054 446.012 263.565 445.212C263.076 444.412 262.856 443.476 262.935 442.542C263.015 441.607 263.391 440.723 264.009 440.017C264.626 439.312 265.453 438.823 266.368 438.621L284.891 434.535L287.549 428.016L302.378 435.135L294.907 458.943Z" fill="black"/>
<path d="M271.148 268.895H265.559C259.549 268.888 253.787 266.495 249.538 262.241C245.288 257.987 242.898 252.219 242.891 246.202V245.891H293.815V246.202C293.809 252.219 291.418 257.987 287.169 262.241C282.919 266.495 277.158 268.888 271.148 268.895Z" fill="#E4E4E4"/>
<path d="M265.559 237.809C265.559 239.354 262.764 240.607 262.764 240.607C262.764 240.607 259.969 239.354 259.969 237.809C259.969 236.264 262.764 235.011 262.764 235.011C262.764 235.011 265.559 236.264 265.559 237.809Z" fill="#6688A9"/>
<path d="M282.326 237.809C282.326 239.354 279.532 240.607 279.532 240.607C279.532 240.607 276.737 239.354 276.737 237.809C276.737 236.264 279.532 235.011 279.532 235.011C279.532 235.011 282.326 236.264 282.326 237.809Z" fill="#6688A9"/>
<path d="M271.148 243.404C271.148 244.95 268.353 246.202 268.353 246.202C268.353 246.202 265.559 244.95 265.559 243.404C265.559 241.859 268.353 240.607 268.353 240.607C268.353 240.607 271.148 241.859 271.148 243.404Z" fill="#6688A9"/>
<path d="M251.585 231.903C253.129 231.903 254.38 230.65 254.38 229.105C254.38 227.56 253.129 226.307 251.585 226.307C250.042 226.307 248.791 227.56 248.791 229.105C248.791 230.65 250.042 231.903 251.585 231.903Z" fill="#6688A9"/>
<path d="M210.942 223.092L255.018 229.186C255.417 229.241 255.8 229.377 256.145 229.584C256.49 229.792 256.789 230.068 257.025 230.394C257.261 230.721 257.428 231.092 257.516 231.485C257.605 231.878 257.613 232.285 257.54 232.681C257.467 233.078 257.314 233.455 257.091 233.791C256.868 234.126 256.58 234.413 256.243 234.634C255.907 234.855 255.529 235.005 255.132 235.076C254.736 235.146 254.33 235.136 253.938 235.045L210.594 224.981C210.353 224.925 210.143 224.778 210.008 224.571C209.872 224.364 209.822 224.113 209.866 223.87C209.911 223.627 210.048 223.41 210.248 223.265C210.449 223.12 210.697 223.058 210.942 223.092Z" fill="#E4E4E4"/>
<path d="M264.502 84.0649V0H258.913V84.0649C251.276 84.7625 244.175 88.2925 239.005 93.9619C233.834 99.6314 230.967 107.031 230.966 114.708V123.101H250.529C250.529 126.069 251.707 128.916 253.803 131.014C255.899 133.113 258.743 134.292 261.707 134.292C264.672 134.292 267.515 133.113 269.612 131.014C271.708 128.916 272.886 126.069 272.886 123.101H292.448V114.708C292.447 107.031 289.58 99.6314 284.41 93.9619C279.239 88.2925 272.139 84.7625 264.502 84.0649Z" fill="white"/>
<path d="M336.464 63.0487V0H332.272V63.0487C326.544 63.5719 321.219 66.2194 317.341 70.4714C313.463 74.7235 311.313 80.2731 311.312 86.0309V92.3259H325.984C325.984 94.5519 326.867 96.6867 328.439 98.2608C330.012 99.8348 332.144 100.719 334.368 100.719C336.591 100.719 338.724 99.8348 340.296 98.2608C341.868 96.6867 342.751 94.5519 342.751 92.3259H357.423V86.0309C357.422 80.2731 355.272 74.7235 351.394 70.4715C347.516 66.2194 342.191 63.5719 336.464 63.0487Z" fill="white"/>
<path d="M194.869 63.0487V0H190.677V63.0487C184.95 63.5719 179.624 66.2194 175.747 70.4714C171.869 74.7235 169.718 80.2731 169.718 86.0309V92.3259H184.389C184.389 94.5519 185.273 96.6867 186.845 98.2608C188.417 99.8348 190.55 100.719 192.773 100.719C194.997 100.719 197.129 99.8348 198.702 98.2608C200.274 96.6867 201.157 94.5519 201.157 92.3259H215.829V86.0309C215.828 80.2731 213.678 74.7235 209.8 70.4715C205.922 66.2194 200.597 63.5719 194.869 63.0487Z" fill="white"/>
<path d="M447.17 148.234C443.215 143.617 441.334 137.491 438.173 132.247C435.011 127.004 429.508 122.311 423.696 123.531C419.689 124.373 416.592 127.912 415.024 131.859C413.457 135.805 413.163 140.157 412.888 144.421C412.985 135.659 407.219 127.165 399.276 124.369C391.334 121.573 381.829 124.692 376.838 131.731C374.66 129.71 371.817 128.559 368.848 128.497C365.879 128.435 362.99 129.465 360.729 131.393C356.265 135.387 355.277 142.99 358.56 148.085C361.843 153.18 368.953 155.078 374.171 152.252L376.016 153.951C374.977 157.586 376.991 161.881 380.375 163.249C383.12 164.359 386.995 164.174 388.022 167.058C388.74 169.073 387.398 171.223 385.971 172.771C384.544 174.32 382.85 175.918 382.679 178.061C382.42 181.293 385.757 183.558 388.79 184.24C396.104 185.884 404.22 182.494 408.435 176.032C408.516 175.907 408.605 175.782 408.7 175.657C411.065 172.629 412.789 169.15 413.766 165.433C414.742 161.716 414.952 157.838 414.381 154.037C414.144 152.543 414.383 151.432 415.412 151.079C419.857 149.55 432.313 152.759 436.083 155.659C439.852 158.558 442.871 162.396 446.502 165.483C450.133 168.571 454.761 170.952 459.371 170.111C463.063 169.438 466.205 166.754 468.318 163.517C470.43 160.28 471.646 156.507 472.735 152.757C464.57 157.479 453.395 155.502 447.17 148.234Z" fill="black"/>
</g>
<defs>
<clipPath id="clip0_107_5813">
<rect width="555" height="466" fill="white"/>
</clipPath>
</defs>
</svg>
