<svg width="697" height="439" viewBox="0 0 697 439" fill="none" xmlns="http://www.w3.org/2000/svg">
<g clip-path="url(#clip0_107_6008)">
<path d="M171.845 14.6085C175.792 14.6085 178.992 11.3383 178.992 7.30425C178.992 3.27023 175.792 0 171.845 0C167.899 0 164.699 3.27023 164.699 7.30425C164.699 11.3383 167.899 14.6085 171.845 14.6085Z" fill="#88A2BD"/>
<path d="M196.533 14.6085C200.48 14.6085 203.68 11.3383 203.68 7.30425C203.68 3.27023 200.48 0 196.533 0C192.586 0 189.387 3.27023 189.387 7.30425C189.387 11.3383 192.586 14.6085 196.533 14.6085Z" fill="#88A2BD"/>
<path d="M221.221 14.6085C225.168 14.6085 228.367 11.3383 228.367 7.30425C228.367 3.27023 225.168 0 221.221 0C217.274 0 214.074 3.27023 214.074 7.30425C214.074 11.3383 217.274 14.6085 221.221 14.6085Z" fill="#88A2BD"/>
<path d="M249.372 13.0774C249.152 13.0774 248.933 12.9924 248.767 12.8233L243.945 7.89492C243.624 7.56653 243.624 7.04176 243.945 6.71337L248.767 1.78545C249.095 1.45211 249.63 1.44675 249.962 1.77226C250.296 2.09858 250.302 2.63366 249.976 2.967L245.732 7.30415L249.976 11.6417C250.302 11.975 250.296 12.5101 249.962 12.8365C249.798 12.9973 249.585 13.0774 249.372 13.0774Z" fill="#88A2BD"/>
<path d="M257.475 13.0773C257.261 13.0773 257.048 12.9972 256.884 12.8363C256.55 12.51 256.544 11.9753 256.87 11.6416L261.114 7.30403L256.87 2.96689C256.544 2.63355 256.55 2.09847 256.884 1.77214C257.217 1.4454 257.752 1.45159 258.079 1.78534L262.9 6.71326C263.222 7.04165 263.222 7.56642 262.9 7.89481L258.079 12.8231C257.913 12.9923 257.694 13.0773 257.475 13.0773Z" fill="#88A2BD"/>
<path d="M509.738 0.845703H500.771C499.749 0.845703 498.921 1.67369 498.921 2.69604V11.6689C498.921 12.6913 499.749 13.5193 500.771 13.5193H509.738C510.76 13.5193 511.597 12.6913 511.597 11.6689V2.69604C511.597 1.67369 510.76 0.845703 509.738 0.845703Z" fill="#88A2BD"/>
<path d="M487.766 0.845703H478.799C477.777 0.845703 476.949 1.67369 476.949 2.69604V11.6689C476.949 12.6913 477.777 13.5193 478.799 13.5193H487.766C488.788 13.5193 489.625 12.6913 489.625 11.6689V2.69604C489.625 1.67369 488.788 0.845703 487.766 0.845703Z" fill="#88A2BD"/>
<path d="M530.442 1.26807H521.476C520.453 1.26807 519.625 2.09606 519.625 3.11841V12.0913C519.625 13.1136 520.453 13.9416 521.476 13.9416H530.442C531.464 13.9416 532.301 13.1136 532.301 12.0913V3.11841C532.301 2.09606 531.464 1.26807 530.442 1.26807Z" fill="#88A2BD"/>
<path d="M395.296 4.6814H323.626C322.375 4.6814 321.369 5.69529 321.369 6.93732C321.369 8.17936 322.375 9.1932 323.626 9.1932H395.296C396.539 9.1932 397.553 8.17931 397.553 6.93732C397.553 5.69534 396.539 4.6814 395.296 4.6814Z" fill="#88A2BD"/>
<path d="M545.103 35.4009H151.896C151.053 35.3829 150.384 34.6849 150.402 33.8419C150.42 33.0243 151.078 32.3656 151.896 32.3481H545.103C545.947 32.3662 546.616 33.0642 546.598 33.9072C546.58 34.7248 545.921 35.3834 545.103 35.4009Z" fill="#88A2BD"/>
<path d="M481.734 56.9739H452.643C450.458 56.9739 448.687 58.7448 448.687 60.9295V60.9295C448.687 63.1141 450.458 64.885 452.643 64.885H481.734C483.919 64.885 485.69 63.1141 485.69 60.9295C485.69 58.7448 483.919 56.9739 481.734 56.9739Z" fill="#88A2BD"/>
<path d="M433.851 72.7964H500.527C502.712 72.7964 504.483 74.5674 504.483 76.752C504.483 78.9366 502.712 80.7075 500.527 80.7075H433.851C431.666 80.7075 429.894 78.9366 429.894 76.752C429.894 74.5674 431.666 72.7964 433.851 72.7964Z" fill="#88A2BD"/>
<path d="M500.527 88.6187H433.851C431.666 88.6187 429.894 90.3896 429.894 92.5742V92.5742C429.894 94.7588 431.666 96.5298 433.851 96.5298H500.527C502.712 96.5298 504.483 94.7588 504.483 92.5742C504.483 90.3896 502.712 88.6187 500.527 88.6187Z" fill="#88A2BD"/>
<path d="M163.853 271.634H145.488C144.994 271.634 142.276 270.196 142.276 268.423V258.223C142.188 250.508 167.45 250.003 167.545 258.223V268.423C167.545 270.196 165.627 271.634 163.853 271.634Z" fill="#70E2A3"/>
<path d="M164.803 251.309C163.912 250.991 162.966 250.855 162.021 250.911C162.274 250.827 162.506 250.691 162.703 250.512C162.53 250.505 162.358 250.482 162.19 250.443C162.004 250.408 161.83 250.33 161.68 250.215C161.53 250.096 161.449 249.91 161.467 249.719C161.501 249.486 161.719 249.294 161.697 249.059C161.671 248.79 161.36 248.659 161.194 248.446C160.986 248.116 161.022 247.688 161.282 247.397C161.44 247.214 161.633 247.063 161.85 246.956C161.483 246.862 161.098 246.867 160.735 246.972C161.124 246.67 161.298 246.166 161.175 245.688C160.969 245.094 160.481 244.641 159.872 244.481C159.272 244.33 158.651 244.28 158.034 244.333C158.558 244.172 158.479 243.351 158.079 242.976C157.678 242.602 157.105 242.446 156.727 242.048C156.349 241.651 156.38 240.803 156.924 240.737L156.857 240.543C155.773 240.139 154.566 240.689 154.161 241.773C154.127 241.866 154.099 241.961 154.077 242.058C153.978 242.679 154.164 243.366 153.852 243.913C153.454 244.61 152.489 244.688 151.691 244.611C150.907 244.41 150.075 244.524 149.373 244.927C148.793 245.411 148.715 246.272 149.198 246.852C149.466 247.174 149.867 247.355 150.286 247.344C149.76 247.347 149.237 247.416 148.729 247.549L149.219 247.739C149.328 247.773 149.428 247.829 149.514 247.905C149.599 247.984 149.626 248.109 149.579 248.216C149.501 248.358 149.299 248.353 149.138 248.329L148.074 248.168C148.286 248.239 148.4 248.468 148.329 248.68C148.259 248.891 148.03 249.006 147.818 248.935C147.764 248.917 147.714 248.888 147.672 248.849C147.781 248.976 147.869 249.121 147.932 249.277C147.995 249.436 147.976 249.615 147.883 249.758C147.666 249.956 147.347 249.995 147.09 249.854C147.003 249.821 146.916 249.782 146.828 249.747C146.83 249.777 146.832 249.808 146.836 249.839C146.895 250.248 147.122 250.614 147.464 250.846C146.981 250.903 146.537 251.137 146.217 251.503C145.663 252.191 145.63 253.162 146.135 253.887C145.598 253.649 145.01 253.552 144.425 253.603C143.823 253.677 143.373 254.19 143.376 254.796C143.473 255.538 144.392 255.809 145.135 255.901C150.976 256.62 156.883 256.619 162.723 255.899C163.517 255.845 164.294 255.648 165.016 255.316C165.747 254.97 166.25 254.274 166.35 253.471C166.318 252.504 165.708 251.652 164.803 251.309Z" fill="#5CDB95"/>
<path d="M169.138 259.905C169.005 259.328 168.49 258.92 167.897 258.923C167.332 258.937 166.828 259.34 166.274 259.252C165.813 259.179 165.452 258.777 164.989 258.838C164.565 258.895 164.337 259.309 164.02 259.532H163.208C162.892 259.283 162.737 258.779 162.298 258.638C161.638 258.425 161.108 259.17 160.416 259.302C160.016 259.346 159.611 259.269 159.255 259.08C158.907 258.891 158.529 258.763 158.137 258.701C157.785 258.649 157.435 258.803 157.236 259.097C157.257 258.886 156.983 258.68 156.705 258.666C156.394 258.678 156.091 258.771 155.828 258.936C155.564 259.102 155.258 259.189 154.946 259.189C154.255 259.128 153.916 258.321 153.221 258.312C152.347 258.301 151.997 259.547 151.132 259.441C150.682 259.386 150.439 258.977 150.038 258.803C149.613 258.672 149.158 258.667 148.73 258.79L146.684 259.173C146.085 259.338 145.452 259.344 144.85 259.191C144.411 259.032 143.985 258.688 143.532 258.819C143.138 258.933 142.946 259.374 142.528 259.397C142.262 259.364 142.005 259.276 141.774 259.139C141.331 258.982 140.838 259.107 140.523 259.454C140.294 260.387 140.257 261.357 140.414 262.305C140.408 262.506 140.424 262.709 140.462 262.907L142.519 271.139C142.761 272.402 143.386 273.315 144.671 273.315H164.669C165.955 273.315 167.06 272.402 167.302 271.139L169.359 262.907C169.363 262.886 169.366 262.865 169.369 262.843C169.418 261.858 169.34 260.871 169.138 259.905Z" fill="#001835"/>
<path opacity="0.2" d="M144.688 259.286L145.088 264.482C145.221 266.214 145.024 267.922 145.157 269.654C145.232 270.629 145.638 271.629 145.713 272.605C145.721 272.719 145.902 272.72 145.893 272.605L145.493 267.408L145.093 262.212L144.868 259.286C144.859 259.171 144.679 259.17 144.688 259.286Z" fill="black"/>
<path opacity="0.2" d="M148.161 259.491L148.316 264.612L148.472 269.732L148.56 272.607C148.563 272.722 148.743 272.723 148.74 272.607L148.584 267.486L148.428 262.366L148.341 259.491C148.337 259.376 148.157 259.375 148.161 259.491Z" fill="black"/>
<path opacity="0.2" d="M151.525 259.798L151.478 264.747L151.431 269.665L151.404 272.455C151.406 272.504 151.447 272.543 151.497 272.541C151.545 272.54 151.582 272.502 151.584 272.455L151.632 267.506L151.679 262.588L151.705 259.798C151.704 259.749 151.662 259.71 151.612 259.711C151.565 259.713 151.527 259.751 151.525 259.798Z" fill="black"/>
<path opacity="0.2" d="M154.067 259.647L154.166 264.657L154.264 269.636L154.319 272.456C154.321 272.506 154.363 272.545 154.412 272.543C154.46 272.541 154.498 272.503 154.499 272.456L154.401 267.446L154.303 262.467L154.247 259.647C154.246 259.597 154.204 259.558 154.154 259.56C154.107 259.562 154.069 259.6 154.067 259.647Z" fill="black"/>
<path opacity="0.2" d="M157.771 259.441L157.884 264.585L157.997 269.728L158.06 272.607C158.061 272.656 158.103 272.695 158.153 272.694C158.2 272.692 158.238 272.654 158.24 272.607L158.127 267.463L158.014 262.32L157.951 259.441C157.949 259.392 157.907 259.353 157.857 259.355C157.811 259.357 157.773 259.395 157.771 259.441Z" fill="black"/>
<path opacity="0.2" d="M160.846 259.597L161.239 264.779L161.631 269.947L161.851 272.859C161.86 272.974 162.04 272.975 162.031 272.859L161.639 267.677L161.247 262.509L161.026 259.597C161.018 259.482 160.837 259.481 160.846 259.597Z" fill="black"/>
<path opacity="0.2" d="M164.263 260.201L164.5 264.943C164.579 266.523 164.178 268.104 164.257 269.685L164.39 272.347C164.395 272.462 164.575 272.463 164.57 272.347C164.491 270.767 164.892 269.186 164.813 267.605L164.576 262.864L164.443 260.201C164.438 260.086 164.257 260.085 164.263 260.201Z" fill="black"/>
<path d="M153.83 247.21C154.211 247.21 154.52 246.995 154.52 246.73C154.52 246.465 154.211 246.25 153.83 246.25C153.449 246.25 153.14 246.465 153.14 246.73C153.14 246.995 153.449 247.21 153.83 247.21Z" fill="#70E2A3"/>
<path d="M158.211 248.29C158.593 248.29 158.902 248.076 158.902 247.81C158.902 247.545 158.593 247.33 158.211 247.33C157.83 247.33 157.521 247.545 157.521 247.81C157.521 248.076 157.83 248.29 158.211 248.29Z" fill="#6688A9"/>
<path d="M152.089 250.631C152.471 250.631 152.78 250.416 152.78 250.151C152.78 249.886 152.471 249.671 152.089 249.671C151.708 249.671 151.399 249.886 151.399 250.151C151.399 250.416 151.708 250.631 152.089 250.631Z" fill="#FF6584"/>
<path d="M157.797 251.264C158.038 251.264 158.233 251.128 158.233 250.96C158.233 250.793 158.038 250.657 157.797 250.657C157.556 250.657 157.361 250.793 157.361 250.96C157.361 251.128 157.556 251.264 157.797 251.264Z" fill="#70E2A3"/>
<path d="M160.566 251.946C160.807 251.946 161.003 251.811 161.003 251.643C161.003 251.475 160.807 251.34 160.566 251.34C160.325 251.34 160.13 251.475 160.13 251.643C160.13 251.811 160.325 251.946 160.566 251.946Z" fill="#6688A9"/>
<path d="M156.697 253.425C156.938 253.425 157.133 253.29 157.133 253.122C157.133 252.954 156.938 252.819 156.697 252.819C156.456 252.819 156.261 252.954 156.261 253.122C156.261 253.29 156.456 253.425 156.697 253.425Z" fill="#FF6584"/>
<path d="M161.879 252.944C162.12 252.944 162.315 252.808 162.315 252.641C162.315 252.473 162.12 252.337 161.879 252.337C161.638 252.337 161.442 252.473 161.442 252.641C161.442 252.808 161.638 252.944 161.879 252.944Z" fill="#70E2A3"/>
<path d="M164.648 253.627C164.889 253.627 165.084 253.491 165.084 253.323C165.084 253.156 164.889 253.02 164.648 253.02C164.407 253.02 164.211 253.156 164.211 253.323C164.211 253.491 164.407 253.627 164.648 253.627Z" fill="#6688A9"/>
<path d="M160.779 255.106C161.019 255.106 161.215 254.97 161.215 254.802C161.215 254.635 161.019 254.499 160.779 254.499C160.538 254.499 160.342 254.635 160.342 254.802C160.342 254.97 160.538 255.106 160.779 255.106Z" fill="#FF6584"/>
<path d="M150.634 251.343C150.667 251.105 150.559 250.893 150.393 250.87C150.227 250.847 150.066 251.022 150.033 251.261C150 251.499 150.108 251.711 150.274 251.734C150.44 251.757 150.601 251.582 150.634 251.343Z" fill="#70E2A3"/>
<path d="M149.579 253.993C149.612 253.754 149.504 253.542 149.338 253.52C149.172 253.497 149.011 253.672 148.978 253.91C148.945 254.149 149.053 254.361 149.219 254.384C149.385 254.407 149.547 254.232 149.579 253.993Z" fill="#6688A9"/>
<path d="M148.642 249.959C148.675 249.72 148.567 249.508 148.401 249.485C148.235 249.463 148.074 249.637 148.041 249.876C148.008 250.115 148.116 250.327 148.282 250.35C148.448 250.372 148.609 250.198 148.642 249.959Z" fill="#FF6584"/>
<path d="M155.375 249.903C155.408 249.665 155.3 249.453 155.134 249.43C154.968 249.407 154.807 249.582 154.774 249.82C154.741 250.059 154.849 250.271 155.015 250.294C155.181 250.317 155.343 250.142 155.375 249.903Z" fill="#70E2A3"/>
<path d="M154.321 252.553C154.354 252.314 154.246 252.102 154.08 252.079C153.914 252.057 153.753 252.231 153.72 252.47C153.687 252.709 153.795 252.921 153.961 252.944C154.127 252.966 154.288 252.791 154.321 252.553Z" fill="#6688A9"/>
<path d="M153.384 248.519C153.417 248.28 153.309 248.068 153.143 248.045C152.977 248.022 152.815 248.197 152.782 248.436C152.75 248.674 152.857 248.886 153.024 248.909C153.19 248.932 153.351 248.757 153.384 248.519Z" fill="#FF6584"/>
<path d="M156.66 246.971C156.693 246.732 156.585 246.52 156.419 246.497C156.253 246.474 156.092 246.649 156.059 246.888C156.026 247.127 156.134 247.339 156.3 247.361C156.466 247.384 156.627 247.209 156.66 246.971Z" fill="#6688A9"/>
<path d="M155.725 242.938C155.757 242.699 155.649 242.487 155.483 242.464C155.317 242.442 155.156 242.616 155.123 242.855C155.09 243.094 155.198 243.306 155.364 243.329C155.53 243.351 155.692 243.176 155.725 242.938Z" fill="#FF6584"/>
<path d="M323.691 195.584C327.218 195.584 330.077 193.595 330.077 191.142C330.077 188.689 327.218 186.701 323.691 186.701C320.164 186.701 317.305 188.689 317.305 191.142C317.305 193.595 320.164 195.584 323.691 195.584Z" fill="#70E2A3"/>
<path d="M364.228 205.577C367.755 205.577 370.614 203.589 370.614 201.136C370.614 198.683 367.755 196.694 364.228 196.694C360.701 196.694 357.842 198.683 357.842 201.136C357.842 203.589 360.701 205.577 364.228 205.577Z" fill="#6688A9"/>
<path d="M307.587 227.23C311.114 227.23 313.973 225.241 313.973 222.788C313.973 220.335 311.114 218.347 307.587 218.347C304.061 218.347 301.201 220.335 301.201 222.788C301.201 225.241 304.061 227.23 307.587 227.23Z" fill="#FF6584"/>
<path d="M398.154 248.629C400.383 248.629 402.19 247.372 402.19 245.822C402.19 244.271 400.383 243.015 398.154 243.015C395.925 243.015 394.118 244.271 394.118 245.822C394.118 247.372 395.925 248.629 398.154 248.629Z" fill="#70E2A3"/>
<path d="M423.774 254.945C426.003 254.945 427.81 253.688 427.81 252.138C427.81 250.587 426.003 249.331 423.774 249.331C421.545 249.331 419.738 250.587 419.738 252.138C419.738 253.688 421.545 254.945 423.774 254.945Z" fill="#6688A9"/>
<path d="M294.119 233.821C294.423 231.614 293.425 229.652 291.889 229.441C290.353 229.229 288.861 230.847 288.556 233.055C288.252 235.263 289.251 237.224 290.787 237.435C292.323 237.647 293.815 236.029 294.119 233.821Z" fill="#70E2A3"/>
<path d="M284.366 258.335C284.671 256.127 283.672 254.166 282.136 253.954C280.6 253.743 279.108 255.361 278.804 257.568C278.5 259.776 279.498 261.737 281.034 261.949C282.57 262.16 284.062 260.542 284.366 258.335Z" fill="#6688A9"/>
<path d="M275.694 221.012C275.998 218.804 274.999 216.843 273.463 216.632C271.927 216.42 270.435 218.038 270.131 220.246C269.827 222.454 270.825 224.415 272.361 224.626C273.897 224.838 275.389 223.22 275.694 221.012Z" fill="#FF6584"/>
<path d="M337.99 220.498C338.294 218.29 337.296 216.329 335.76 216.117C334.223 215.906 332.732 217.524 332.427 219.731C332.123 221.939 333.122 223.9 334.658 224.112C336.194 224.324 337.686 222.705 337.99 220.498Z" fill="#70E2A3"/>
<path d="M319.562 207.688C319.866 205.48 318.868 203.519 317.332 203.307C315.796 203.096 314.304 204.714 314 206.921C313.695 209.129 314.694 211.09 316.23 211.302C317.766 211.513 319.258 209.895 319.562 207.688Z" fill="#FF6584"/>
<path d="M490.122 422.868C491.229 422.919 492.167 422.063 492.218 420.956C492.245 420.365 492.01 419.792 491.576 419.391C491.525 419.19 491.489 419.045 491.438 418.844C492.529 416.075 495.659 414.713 498.429 415.804C499.788 416.339 500.871 417.402 501.432 418.75C503.81 424.315 506.888 430.076 505.357 436.205C515.467 414.783 512.029 388.136 497.088 369.816C492.823 367.551 489.771 363.525 488.739 358.808C490.783 359.501 493.332 357.839 491.795 355.686C491.129 354.864 490.456 354.047 489.79 353.225C497.554 344.958 506.805 357.95 498.259 369.108C501.054 372.613 503.476 376.399 505.484 380.407C505.02 376.152 505.574 371.847 507.099 367.846C508.644 364.118 511.541 360.979 514.093 357.756C515.979 355.339 519.468 354.908 521.886 356.793C523.084 357.728 523.847 359.112 523.996 360.624C521.134 361.565 520.762 365.699 524.036 366.265C523.023 375.68 517.267 383.924 508.778 388.121C511.859 396.764 513.062 405.964 512.307 415.109C513.779 404.422 525.254 401.828 533.274 397.58C534.727 396.649 536.659 397.071 537.59 398.524C538.012 399.182 538.172 399.974 538.039 400.744C536.932 401.194 535.872 401.753 534.876 402.412C533.626 403.253 533.294 404.947 534.134 406.196C534.591 406.875 535.328 407.314 536.143 407.39C532.1 417.393 521.648 424.111 510.913 424.073C509.882 428.555 508.387 432.917 506.453 437.09H490.521C490.464 436.913 490.412 436.731 490.361 436.554C491.836 436.646 493.316 436.558 494.77 436.291C490.868 431.672 487.851 429.316 490.122 422.868Z" fill="#001835"/>
<path d="M178.159 422.629C177.052 422.68 176.113 421.824 176.063 420.718C176.035 420.127 176.27 419.554 176.705 419.152L176.842 418.606C175.752 415.836 172.622 414.475 169.852 415.565C168.493 416.1 167.409 417.163 166.849 418.512C164.471 424.077 161.393 429.838 162.924 435.967C152.814 414.545 156.252 387.898 171.193 369.578C175.457 367.312 178.51 363.287 179.541 358.57C177.498 359.262 174.949 357.6 176.486 355.448C177.152 354.625 177.825 353.809 178.491 352.986C170.727 344.719 161.476 357.712 170.022 368.87C167.226 372.374 164.805 376.161 162.797 380.169C163.26 375.913 162.707 371.608 161.182 367.608C159.636 363.88 156.739 360.74 154.188 357.518C152.302 355.1 148.813 354.669 146.395 356.555C145.197 357.489 144.434 358.874 144.284 360.386C147.147 361.326 147.519 365.461 144.244 366.026C145.258 375.441 151.013 383.685 159.503 387.882C156.422 396.525 155.219 405.726 155.974 414.871C154.501 404.183 143.027 401.59 135.007 397.342C133.554 396.411 131.622 396.833 130.69 398.285C130.268 398.943 130.108 399.735 130.242 400.506C131.349 400.956 132.409 401.515 133.405 402.174C134.655 403.014 134.987 404.708 134.146 405.958C133.69 406.637 132.953 407.075 132.138 407.151C136.181 417.155 146.633 423.872 157.367 423.834C158.399 428.316 159.894 432.679 161.827 436.852H177.76C177.817 436.675 177.868 436.492 177.92 436.315C176.445 436.408 174.964 436.32 173.511 436.053C177.413 431.434 180.43 429.077 178.159 422.629Z" fill="#001835"/>
<path d="M218.076 236.143L216.382 226.322L242.146 214.691L247.71 204.841C247.172 202.252 248.835 199.717 251.425 199.178C254.015 198.64 256.551 200.303 257.089 202.892C257.511 204.92 256.581 206.989 254.784 208.02L245.631 222.168L218.076 236.143Z" fill="#A0616A"/>
<path d="M210.245 228.114L221.847 222.189L224.919 233.72L216.859 239.692L210.245 228.114Z" fill="#DCFAEA"/>
<path d="M184.209 424.101H191.224L194.561 397.047H184.208L184.209 424.101Z" fill="#A0616A"/>
<path d="M193.559 424.733V419.978L191.715 420.09L184.207 420.535L182.47 420.642L181.141 436.567L181.07 437.421H186.052L186.212 436.573L186.935 432.719L188.803 436.573L189.212 437.421H202.419C204.054 437.41 205.377 436.085 205.384 434.45C205.941 431.847 194.959 426.221 193.559 424.733Z" fill="black"/>
<path d="M101.105 398.849L106.84 402.887L125.152 382.693L116.687 376.731L101.105 398.849Z" fill="#A0616A"/>
<path d="M108.59 404.233L111.329 400.345L109.756 399.375L103.362 395.416L101.88 394.503L91.6213 406.757L91.0713 407.414L95.1435 410.282L95.7628 409.681L98.5741 406.947L97.8813 411.173L97.7275 412.102L108.524 419.706C109.867 420.64 111.711 420.318 112.659 418.985C114.614 417.178 108.876 406.255 108.59 404.233Z" fill="black"/>
<path d="M195.056 249.011L186.027 244.791L168.019 266.578L157.051 269.352C154.694 268.151 151.81 269.087 150.608 271.444C149.407 273.8 150.344 276.684 152.701 277.885C154.546 278.825 156.787 278.473 158.255 277.012L174.317 271.909L195.056 249.011Z" fill="#A0616A"/>
<path d="M185.953 284.106C185.953 284.106 171.137 293.752 175.055 300.161C175.19 300.382 143.496 344.374 143.496 344.374L107.957 382.682L120.174 393.786C120.174 393.786 153.936 358.635 159.6 352.702C165.264 346.768 190.003 317.084 190.003 317.084L190.913 353.769L181.442 404.603L195.583 403.707L209.346 352.707L214.427 294.938L185.953 284.106Z" fill="black"/>
<path d="M196.506 226.218L190.276 230.938L183.175 246.091L190.003 255.363C190.003 255.363 195.747 265.316 186.553 274.955C177.359 284.593 170.299 294.887 177.658 294.52C185.017 294.152 214.821 309.309 215.017 296.891C215.213 284.474 215.61 274.955 215.61 274.955L223.424 255.139C223.424 255.139 228.08 243.319 224.811 239.78C221.543 236.242 217.166 231.72 217.166 231.72L209.208 223.763H202.022L196.506 226.218Z" fill="#DCFAEA"/>
<path d="M208.136 197.103C222.113 205.055 210.639 226.036 196.401 218.565C182.425 210.613 193.899 189.632 208.136 197.103Z" fill="#A0616A"/>
<path d="M215.61 201.512C214.631 202.786 212.585 202.188 208.578 203.097C208.587 201.739 208.43 200.385 208.111 199.065C207.813 200.7 207.159 202.249 206.197 203.603C202.717 203.989 206.983 214.556 205.201 222.326C202.906 205.934 198.078 210.229 200.517 213.48C202.078 215.562 201.038 221.806 196.353 218.684C188.625 222.356 177.617 204.114 189.817 195.558C189.599 190.934 194.746 190.203 197.915 191.625C205.606 185.897 214.393 193.237 215.61 201.512Z" fill="black"/>
<path d="M179.748 189.551C176.636 208.68 159.957 186.033 152.115 204.858C149.649 211.675 153.88 216.552 156.556 222.21C157.166 226.86 151.115 229.22 150.482 233.5C150.305 243.314 166.141 242.713 170.568 236.522C175.117 230.04 169.685 221.344 172.419 214.387C176.262 204.729 191.89 204.657 193.251 193.42C190.615 189.666 183.525 185.366 179.748 189.551Z" fill="black"/>
<path d="M192.354 191.42C192.252 191.463 192.151 191.506 192.059 191.554H192.054C191.968 191.597 191.883 191.64 191.797 191.688C191.786 191.694 191.781 191.699 191.77 191.704C191.658 191.597 191.545 191.49 191.427 191.383C191.397 191.557 191.404 191.736 191.449 191.908L191.465 191.972C191.572 192.085 191.684 192.192 191.802 192.304C191.909 192.224 192.011 192.138 192.118 192.058C192.183 192.004 192.247 191.951 192.317 191.897C192.327 191.758 192.343 191.597 192.36 191.42L192.354 191.42ZM195.58 185.464C193.19 184.917 192.418 188.04 192.188 189.546C191.32 184.082 187.709 185.801 188.957 189.529C189.355 190.633 189.981 191.641 190.795 192.486C190.908 192.615 191.031 192.744 191.159 192.872C191.015 193.622 191.743 193.429 192.729 192.738C193.457 192.221 194.13 191.63 194.738 190.976C196.705 188.913 198.237 186.155 195.58 185.464ZM195.655 188.538C194.917 189.489 194.09 190.366 193.185 191.158C192.901 191.415 192.611 191.661 192.317 191.897C192.311 191.945 192.311 191.988 192.306 192.026C192.285 192.078 192.26 192.128 192.231 192.176C191.931 192.717 191.593 192.422 191.465 191.972C191.454 191.956 191.438 191.94 191.427 191.924C190.999 191.482 190.627 190.989 190.318 190.456C188.105 186.621 191.668 184.012 191.492 191.174C191.459 191.24 191.437 191.31 191.427 191.383C191.397 191.557 191.404 191.736 191.449 191.908L191.465 191.972C191.572 192.085 191.684 192.192 191.802 192.304C191.909 192.224 192.011 192.138 192.118 192.058C192.183 192.004 192.247 191.951 192.317 191.897C192.327 191.758 192.343 191.597 192.36 191.42L192.36 191.415C192.499 189.979 192.879 187.397 193.581 186.696C195.124 185.512 197.123 186.792 195.655 188.538ZM192.354 191.42C192.252 191.463 192.151 191.506 192.059 191.554H192.054C191.968 191.597 191.883 191.64 191.797 191.688C191.786 191.694 191.781 191.699 191.77 191.704C191.658 191.597 191.545 191.49 191.427 191.383C191.397 191.557 191.404 191.736 191.449 191.908L191.465 191.972C191.572 192.085 191.684 192.192 191.802 192.304C191.909 192.224 192.011 192.138 192.118 192.058C192.183 192.004 192.247 191.951 192.317 191.897C192.327 191.758 192.343 191.597 192.36 191.42L192.354 191.42Z" fill="black"/>
<path d="M486.69 425.225L479.829 426.786L470.542 401.068L480.669 398.764L486.69 425.225Z" fill="#FFB6B6"/>
<path d="M488.561 432.326L467.461 437.126L467.401 436.859C466.369 432.324 469.209 427.812 473.744 426.78L476.934 422.979L484.79 424.267L486.632 423.848L488.561 432.326Z" fill="black"/>
<path d="M576.164 411.706L570.238 415.499L552.783 394.45L561.53 388.851L576.164 411.706Z" fill="#FFB6B6"/>
<path d="M580.332 417.753L562.108 429.418L561.96 429.188C559.452 425.271 560.594 420.063 564.512 417.555L566.224 412.899L574.052 411.449L575.643 410.43L580.332 417.753Z" fill="black"/>
<path d="M482.123 297.114L476.962 310.573L452.745 358.331L474.023 413.886L485.005 410.988L475.954 358.331L501.922 326.784L516.999 359.197L560.312 406.942L570.308 400.28L538.1 350.868L516.653 288.206L482.123 297.114Z" fill="black"/>
<path d="M508.17 233.625L499.673 224.498L485.096 222.493L467.236 234.994L467.416 248.831L476.245 281.436C476.245 281.436 472.882 304.862 482.275 304.627C491.669 304.392 496.789 299.71 500.615 300.663C504.441 301.616 520.704 305.673 521.735 301.424C522.766 297.175 528.244 300.217 528.004 296.197C527.763 292.178 513.172 263.204 513.172 263.204L515.726 242.81C516.287 238.323 513.105 234.231 508.617 233.669C508.468 233.65 508.32 233.636 508.17 233.625Z" fill="#DCFAEA"/>
<path d="M566.811 291.136C563.999 291.732 561.236 289.937 560.639 287.125C560.575 286.826 560.538 286.521 560.528 286.214L521.458 270.836L528.894 264.745L565.934 280.781C568.822 280.878 571.085 283.298 570.988 286.186C570.907 288.603 569.18 290.649 566.811 291.136Z" fill="#FFB6B6"/>
<path d="M511.473 235.318C511.473 235.318 504.817 235.266 504 242.841C503.183 250.415 517.137 269.626 519.294 272.79C519.969 273.78 522.871 274.907 526.539 275.988C528.185 276.473 529.986 276.949 531.809 277.399C532.864 277.66 533.336 279.408 534.38 279.648C535.419 279.887 537.03 278.617 538.007 278.829C542.647 279.836 546.313 280.507 546.313 280.507L554.987 274.597C550.611 268.138 542.241 265.495 532.757 263.916L511.473 235.318Z" fill="#DCFAEA"/>
<path d="M413.54 200.141C413.978 202.982 416.636 204.93 419.477 204.492C419.78 204.446 420.078 204.372 420.368 204.273L448.588 235.358L451.652 226.25L423.536 197.295C422.423 194.629 419.358 193.37 416.691 194.483C414.459 195.415 413.157 197.754 413.54 200.141Z" fill="#FFB6B6"/>
<path d="M485.348 232.118C485.348 232.118 487.752 238.323 480.957 241.769C474.161 245.215 451.25 238.97 447.527 238.074C446.361 237.794 444.28 235.479 441.97 232.433C440.933 231.065 439.85 229.55 438.783 228.004C438.166 227.11 436.364 227.288 435.769 226.397C435.178 225.51 435.795 223.554 435.251 222.715C432.667 218.734 430.74 215.543 430.74 215.543L433.197 205.34C440.789 207.145 446.225 214.035 451.06 222.343L485.348 232.118Z" fill="#DCFAEA"/>
<path d="M492.675 220.171C500.335 220.171 506.545 213.963 506.545 206.304C506.545 198.646 500.335 192.438 492.675 192.438C485.016 192.438 478.806 198.646 478.806 206.304C478.806 213.963 485.016 220.171 492.675 220.171Z" fill="#FFB6B6"/>
<path d="M508.507 198.365C507.056 196.027 504.392 194.729 501.657 195.027C500.911 189.915 496.162 186.376 491.049 187.121C489.149 187.398 487.379 188.254 485.982 189.571C485.149 188.985 484.069 188.877 483.137 189.287C482.223 189.702 481.429 190.34 480.826 191.142C477.723 195.01 476.999 200.272 478.942 204.834C478.617 203.655 479.799 202.546 480.993 202.282C482.187 202.017 483.439 202.267 484.65 202.095C486.202 201.874 487.597 200.974 489.151 200.772C490.469 200.686 491.791 200.856 493.045 201.272C494.298 201.688 495.618 201.865 496.937 201.795C498.245 201.639 499.93 206.596 499.908 210.087C499.903 210.748 500.04 211.598 500.686 211.738C501.483 211.911 501.944 210.812 502.702 210.513C503.428 210.305 504.189 210.709 504.422 211.427C504.616 212.14 504.453 212.902 503.985 213.474C503.52 214.033 502.966 214.512 502.348 214.895L502.66 215.154C503.271 215.8 504.254 215.922 505.005 215.445C505.72 214.961 506.3 214.301 506.688 213.529C508.151 211.267 509.197 208.761 509.776 206.131C510.348 203.475 509.894 200.701 508.507 198.365Z" fill="black"/>
<path d="M349.892 193.378C350.196 191.17 349.197 189.209 347.661 188.997C346.125 188.785 344.633 190.404 344.329 192.611C344.025 194.819 345.023 196.78 346.559 196.992C348.095 197.203 349.587 195.585 349.892 193.378Z" fill="#6688A9"/>
<path d="M576.844 288.093H558.479C557.986 288.093 555.267 286.655 555.267 284.881V274.682C555.179 266.967 580.441 266.462 580.536 274.682V284.881C580.536 286.655 578.618 288.093 576.844 288.093Z" fill="#70E2A3"/>
<path d="M577.794 267.768C576.903 267.449 575.957 267.314 575.013 267.369C575.265 267.286 575.497 267.15 575.694 266.97C575.521 266.963 575.349 266.94 575.181 266.901C574.996 266.866 574.821 266.788 574.671 266.673C574.521 266.555 574.441 266.368 574.458 266.178C574.492 265.944 574.71 265.752 574.688 265.518C574.662 265.249 574.351 265.118 574.185 264.904C573.977 264.575 574.013 264.147 574.273 263.856C574.431 263.672 574.624 263.522 574.841 263.414C574.475 263.32 574.089 263.326 573.726 263.43C574.116 263.129 574.289 262.624 574.166 262.147C573.961 261.552 573.472 261.1 572.863 260.94C572.263 260.788 571.642 260.738 571.025 260.791C571.55 260.63 571.47 259.809 571.07 259.435C570.669 259.061 570.096 258.904 569.718 258.507C569.34 258.11 569.371 257.261 569.915 257.195L569.848 257.002C568.764 256.597 567.557 257.148 567.152 258.232C567.118 258.324 567.09 258.419 567.068 258.516C566.969 259.137 567.155 259.825 566.843 260.371C566.445 261.068 565.48 261.147 564.682 261.07C563.898 260.869 563.066 260.982 562.364 261.386C561.784 261.869 561.706 262.731 562.189 263.311C562.457 263.633 562.858 263.814 563.277 263.802C562.751 263.806 562.228 263.875 561.72 264.008L562.21 264.197C562.318 264.231 562.419 264.288 562.504 264.363C562.59 264.442 562.617 264.567 562.57 264.674C562.492 264.816 562.29 264.811 562.129 264.787L561.065 264.627C561.276 264.698 561.391 264.927 561.32 265.138C561.249 265.35 561.021 265.464 560.809 265.394C560.754 265.376 560.705 265.346 560.663 265.307C560.772 265.435 560.86 265.579 560.923 265.735C560.985 265.894 560.967 266.073 560.873 266.216C560.657 266.415 560.338 266.453 560.081 266.313C559.994 266.279 559.907 266.241 559.819 266.205C559.821 266.236 559.823 266.267 559.827 266.298C559.885 266.707 560.113 267.072 560.455 267.305C559.972 267.361 559.528 267.595 559.208 267.961C558.654 268.649 558.621 269.621 559.126 270.345C558.589 270.108 558.001 270.01 557.416 270.062C556.814 270.136 556.364 270.648 556.367 271.254C556.464 271.996 557.383 272.267 558.126 272.359C563.967 273.078 569.874 273.077 575.714 272.357C576.508 272.304 577.285 272.106 578.007 271.774C578.738 271.428 579.241 270.732 579.341 269.93C579.309 268.963 578.699 268.11 577.794 267.768Z" fill="#5CDB95"/>
<path d="M582.13 276.363C581.996 275.786 581.481 275.378 580.888 275.381C580.324 275.396 579.819 275.799 579.265 275.71C578.804 275.637 578.443 275.235 577.98 275.297C577.556 275.353 577.328 275.767 577.011 275.99H576.199C575.883 275.741 575.728 275.237 575.289 275.096C574.629 274.883 574.099 275.628 573.407 275.76C573.007 275.804 572.602 275.727 572.246 275.538C571.898 275.349 571.52 275.221 571.128 275.16C570.777 275.107 570.426 275.261 570.227 275.555C570.248 275.345 569.974 275.138 569.696 275.125C569.385 275.136 569.083 275.229 568.819 275.395C568.555 275.56 568.249 275.647 567.937 275.647C567.246 275.587 566.907 274.779 566.212 274.771C565.338 274.76 564.988 276.005 564.123 275.899C563.673 275.844 563.43 275.436 563.029 275.261C562.604 275.13 562.149 275.126 561.721 275.248L559.676 275.631C559.076 275.797 558.444 275.803 557.841 275.649C557.402 275.49 556.976 275.147 556.523 275.277C556.129 275.391 555.937 275.833 555.52 275.856C555.253 275.822 554.996 275.734 554.765 275.597C554.322 275.441 553.829 275.565 553.514 275.913C553.285 276.845 553.248 277.815 553.405 278.763C553.399 278.965 553.415 279.167 553.453 279.365L555.51 287.597C555.752 288.86 556.377 289.773 557.662 289.773H577.66C578.946 289.773 580.051 288.86 580.293 287.597L582.35 279.365C582.354 279.344 582.357 279.323 582.36 279.301C582.409 278.316 582.331 277.329 582.13 276.363Z" fill="#001835"/>
<path opacity="0.2" d="M557.679 275.744L558.079 280.94C558.212 282.672 558.015 284.38 558.148 286.112C558.223 287.088 558.629 288.088 558.704 289.063C558.713 289.178 558.893 289.179 558.884 289.063L558.484 283.867L558.084 278.671L557.859 275.744C557.85 275.629 557.67 275.628 557.679 275.744Z" fill="black"/>
<path opacity="0.2" d="M561.152 275.95L561.308 281.07L561.464 286.191L561.551 289.065C561.555 289.181 561.735 289.181 561.731 289.065L561.575 283.945L561.419 278.825L561.332 275.95C561.328 275.834 561.148 275.834 561.152 275.95Z" fill="black"/>
<path opacity="0.2" d="M564.516 276.257L564.469 281.205L564.422 286.124L564.395 288.913C564.397 288.963 564.439 289.002 564.488 289C564.536 288.998 564.574 288.96 564.575 288.913L564.623 283.965L564.67 279.046L564.697 276.257C564.695 276.207 564.653 276.168 564.603 276.17C564.556 276.172 564.518 276.21 564.516 276.257Z" fill="black"/>
<path opacity="0.2" d="M567.058 276.105L567.157 281.115L567.255 286.095L567.31 288.914C567.312 288.964 567.354 289.003 567.403 289.001C567.451 289 567.489 288.962 567.49 288.914L567.392 283.905L567.294 278.925L567.238 276.105C567.237 276.056 567.195 276.017 567.145 276.019C567.098 276.02 567.06 276.058 567.058 276.105Z" fill="black"/>
<path opacity="0.2" d="M570.763 275.9L570.875 281.043L570.988 286.186L571.051 289.065C571.053 289.115 571.095 289.154 571.144 289.152C571.192 289.151 571.229 289.113 571.231 289.065L571.118 283.922L571.006 278.779L570.943 275.9C570.941 275.85 570.899 275.811 570.85 275.813C570.802 275.815 570.764 275.853 570.763 275.9Z" fill="black"/>
<path opacity="0.2" d="M573.838 276.056L574.23 281.238L574.622 286.405L574.843 289.317C574.851 289.432 575.032 289.433 575.023 289.317L574.63 284.135L574.238 278.968L574.018 276.056C574.009 275.941 573.829 275.94 573.838 276.056Z" fill="black"/>
<path opacity="0.2" d="M577.254 276.66L577.491 281.401C577.57 282.982 577.169 284.562 577.248 286.143L577.381 288.806C577.387 288.921 577.567 288.921 577.561 288.806C577.482 287.225 577.883 285.644 577.804 284.064L577.568 279.322L577.435 276.66C577.429 276.544 577.249 276.544 577.254 276.66Z" fill="black"/>
<path d="M566.821 263.669C567.202 263.669 567.511 263.454 567.511 263.189C567.511 262.924 567.202 262.709 566.821 262.709C566.44 262.709 566.131 262.924 566.131 263.189C566.131 263.454 566.44 263.669 566.821 263.669Z" fill="#70E2A3"/>
<path d="M571.203 264.749C571.584 264.749 571.893 264.534 571.893 264.269C571.893 264.004 571.584 263.789 571.203 263.789C570.822 263.789 570.513 264.004 570.513 264.269C570.513 264.534 570.822 264.749 571.203 264.749Z" fill="#6688A9"/>
<path d="M565.081 267.089C565.462 267.089 565.771 266.874 565.771 266.609C565.771 266.344 565.462 266.129 565.081 266.129C564.699 266.129 564.39 266.344 564.39 266.609C564.39 266.874 564.699 267.089 565.081 267.089Z" fill="#FF6584"/>
<path d="M570.788 267.722C571.029 267.722 571.225 267.586 571.225 267.419C571.225 267.251 571.029 267.115 570.788 267.115C570.547 267.115 570.352 267.251 570.352 267.419C570.352 267.586 570.547 267.722 570.788 267.722Z" fill="#70E2A3"/>
<path d="M573.558 268.405C573.799 268.405 573.994 268.269 573.994 268.101C573.994 267.934 573.799 267.798 573.558 267.798C573.317 267.798 573.121 267.934 573.121 268.101C573.121 268.269 573.317 268.405 573.558 268.405Z" fill="#6688A9"/>
<path d="M569.688 269.884C569.929 269.884 570.124 269.748 570.124 269.581C570.124 269.413 569.929 269.277 569.688 269.277C569.447 269.277 569.252 269.413 569.252 269.581C569.252 269.748 569.447 269.884 569.688 269.884Z" fill="#FF6584"/>
<path d="M574.87 269.402C575.111 269.402 575.306 269.267 575.306 269.099C575.306 268.931 575.111 268.796 574.87 268.796C574.629 268.796 574.434 268.931 574.434 269.099C574.434 269.267 574.629 269.402 574.87 269.402Z" fill="#70E2A3"/>
<path d="M577.639 270.085C577.88 270.085 578.075 269.949 578.075 269.782C578.075 269.614 577.88 269.478 577.639 269.478C577.398 269.478 577.203 269.614 577.203 269.782C577.203 269.949 577.398 270.085 577.639 270.085Z" fill="#6688A9"/>
<path d="M573.77 271.564C574.011 271.564 574.206 271.428 574.206 271.261C574.206 271.093 574.011 270.957 573.77 270.957C573.529 270.957 573.333 271.093 573.333 271.261C573.333 271.428 573.529 271.564 573.77 271.564Z" fill="#FF6584"/>
<path d="M563.625 267.802C563.658 267.563 563.55 267.351 563.384 267.329C563.218 267.306 563.057 267.481 563.024 267.719C562.991 267.958 563.099 268.17 563.265 268.193C563.431 268.216 563.592 268.041 563.625 267.802Z" fill="#70E2A3"/>
<path d="M562.568 270.451C562.6 270.212 562.492 270 562.326 269.977C562.16 269.954 561.999 270.129 561.966 270.368C561.933 270.606 562.041 270.818 562.207 270.841C562.373 270.864 562.535 270.689 562.568 270.451Z" fill="#6688A9"/>
<path d="M561.633 266.417C561.666 266.179 561.558 265.967 561.392 265.944C561.226 265.921 561.065 266.096 561.032 266.335C560.999 266.573 561.107 266.785 561.273 266.808C561.439 266.831 561.6 266.656 561.633 266.417Z" fill="#FF6584"/>
<path d="M568.367 266.362C568.4 266.123 568.292 265.911 568.126 265.888C567.96 265.865 567.798 266.04 567.766 266.279C567.733 266.517 567.841 266.729 568.007 266.752C568.173 266.775 568.334 266.6 568.367 266.362Z" fill="#70E2A3"/>
<path d="M567.312 269.011C567.345 268.773 567.237 268.561 567.071 268.538C566.905 268.515 566.744 268.69 566.711 268.929C566.678 269.167 566.786 269.379 566.952 269.402C567.118 269.425 567.28 269.25 567.312 269.011Z" fill="#6688A9"/>
<path d="M566.375 264.977C566.408 264.739 566.3 264.527 566.134 264.504C565.968 264.481 565.807 264.656 565.774 264.894C565.741 265.133 565.849 265.345 566.015 265.368C566.181 265.391 566.342 265.216 566.375 264.977Z" fill="#FF6584"/>
<path d="M569.653 263.431C569.686 263.192 569.578 262.98 569.412 262.957C569.246 262.934 569.085 263.109 569.052 263.348C569.019 263.586 569.127 263.798 569.293 263.821C569.459 263.844 569.62 263.669 569.653 263.431Z" fill="#6688A9"/>
<path d="M568.716 259.396C568.749 259.158 568.641 258.946 568.475 258.923C568.309 258.9 568.147 259.075 568.114 259.314C568.082 259.552 568.19 259.764 568.356 259.787C568.522 259.81 568.683 259.635 568.716 259.396Z" fill="#FF6584"/>
<path d="M697 438.037C696.352 439.957 0.69962 438.723 0 436.807C0.647581 434.882 696.299 436.117 697 438.037Z" fill="#5CDB95"/>
<path d="M270.687 338.237C258.476 338.237 248.577 328.34 248.577 316.132C248.577 303.923 258.476 294.026 270.687 294.026C282.899 294.026 292.798 303.923 292.798 316.132C292.798 328.34 282.899 338.237 270.687 338.237Z" fill="#88A2BD"/>
<path d="M279.411 313.951H272.868V307.409C272.868 306.205 271.892 305.229 270.687 305.229C269.482 305.229 268.506 306.205 268.506 307.409V313.951H261.963C260.758 313.951 259.782 314.927 259.782 316.132C259.782 317.336 260.758 318.312 261.963 318.312H268.506V324.854C268.509 326.058 269.488 327.032 270.692 327.03C271.893 327.027 272.865 326.054 272.868 324.854V318.312H279.411C280.616 318.312 281.592 317.336 281.592 316.132C281.592 314.927 280.616 313.951 279.411 313.951Z" fill="#F7FAFC"/>
<path d="M335.376 338.237C323.164 338.237 313.265 328.34 313.265 316.132C313.265 303.923 323.164 294.026 335.376 294.026C347.587 294.026 357.486 303.923 357.486 316.132C357.486 328.34 347.587 338.237 335.376 338.237Z" fill="#88A2BD"/>
<path d="M344.1 313.951H326.651C325.447 313.951 324.47 314.927 324.47 316.132C324.47 317.336 325.447 318.312 326.651 318.312H344.1C345.304 318.312 346.281 317.336 346.281 316.132C346.281 314.927 345.304 313.951 344.1 313.951Z" fill="#F7FAFC"/>
<path d="M400.064 338.237C387.852 338.238 377.953 328.34 377.953 316.132C377.953 303.923 387.852 294.026 400.063 294.026C412.275 294.026 422.174 303.923 422.174 316.131C422.174 328.34 412.275 338.237 400.064 338.237Z" fill="#5CDB95"/>
<path d="M412.502 315.081L406.234 305.934C405.654 305.087 404.497 304.871 403.65 305.451C402.803 306.031 402.587 307.188 403.167 308.035L407.221 313.951H391.339C390.135 313.951 389.158 314.927 389.158 316.131C389.158 317.336 390.135 318.312 391.339 318.312H407.42L403.167 324.519C402.589 325.367 402.808 326.523 403.656 327.101C404.501 327.678 405.654 327.463 406.234 326.62L412.502 317.473C412.917 316.729 412.917 315.824 412.502 315.081Z" fill="#F7FAFC"/>
<path d="M239.464 76.752H210.373C208.188 76.752 206.417 78.5229 206.417 80.7075V80.7075C206.417 82.8921 208.188 84.6631 210.373 84.6631H239.464C241.649 84.6631 243.42 82.8921 243.42 80.7075C243.42 78.5229 241.649 76.752 239.464 76.752Z" fill="#88A2BD"/>
<path d="M258.257 92.5742H191.581C189.396 92.5742 187.624 94.3452 187.624 96.5298V96.5298C187.624 98.7144 189.396 100.485 191.581 100.485H258.257C260.442 100.485 262.213 98.7144 262.213 96.5298C262.213 94.3452 260.442 92.5742 258.257 92.5742Z" fill="#88A2BD"/>
<path d="M258.257 108.396H191.581C189.396 108.396 187.624 110.167 187.624 112.352V112.352C187.624 114.537 189.396 116.308 191.581 116.308H258.257C260.442 116.308 262.213 114.537 262.213 112.352C262.213 110.167 260.442 108.396 258.257 108.396Z" fill="#88A2BD"/>
<path d="M254.145 193.332H252.455V129.928H131.899V128.238H254.145V193.332Z" fill="#88A2BD"/>
<path d="M113.063 147.64C126.028 147.64 136.539 137.131 136.539 124.168C136.539 111.206 126.028 100.697 113.063 100.697C100.097 100.697 89.5864 111.206 89.5864 124.168C89.5864 137.131 100.097 147.64 113.063 147.64Z" fill="#88A2BD"/>
<path d="M109.86 136.384C109.038 136.384 108.264 135.997 107.771 135.34L101.366 126.802C100.501 125.648 100.735 124.012 101.889 123.147C103.043 122.281 104.679 122.515 105.545 123.669L109.735 129.254L120.497 113.115C121.297 111.915 122.918 111.591 124.118 112.391C125.318 113.191 125.642 114.812 124.842 116.011L112.033 135.221C111.563 135.926 110.78 136.36 109.933 136.383C109.908 136.384 109.884 136.384 109.86 136.384Z" fill="#F7FAFC"/>
<path d="M413.386 189.989H411.696V124.896H533.942V126.585H413.386V189.989Z" fill="#88A2BD"/>
<path d="M552.688 144.297C565.653 144.297 576.164 133.789 576.164 120.826C576.164 107.863 565.653 97.3545 552.688 97.3545C539.722 97.3545 529.211 107.863 529.211 120.826C529.211 133.789 539.722 144.297 552.688 144.297Z" fill="#88A2BD"/>
<path d="M549.485 133.042C548.663 133.042 547.889 132.655 547.396 131.997L540.992 123.459C540.123 122.308 540.353 120.671 541.505 119.803C542.657 118.935 544.294 119.165 545.162 120.316L545.17 120.327L549.36 125.912L560.122 109.773C560.922 108.573 562.543 108.249 563.743 109.048C564.943 109.848 565.268 111.469 564.468 112.669L551.658 131.879C551.188 132.584 550.405 133.017 549.558 133.041C549.534 133.041 549.509 133.042 549.485 133.042Z" fill="#F7FAFC"/>
<path d="M260.863 200.824H242.498C242.005 200.824 239.286 199.386 239.286 197.612V187.413C239.198 179.698 264.46 179.193 264.555 187.413V197.612C264.555 199.386 262.637 200.824 260.863 200.824Z" fill="#70E2A3"/>
<path d="M261.813 180.499C260.922 180.18 259.976 180.044 259.032 180.1C259.284 180.017 259.516 179.881 259.713 179.701C259.54 179.694 259.369 179.671 259.2 179.632C259.015 179.597 258.84 179.519 258.691 179.404C258.54 179.286 258.46 179.099 258.477 178.909C258.511 178.675 258.729 178.483 258.707 178.249C258.681 177.98 258.371 177.849 258.205 177.635C257.996 177.306 258.032 176.878 258.292 176.587C258.45 176.403 258.643 176.253 258.86 176.145C258.494 176.051 258.109 176.057 257.745 176.161C258.135 175.86 258.308 175.355 258.186 174.878C257.98 174.283 257.491 173.831 256.883 173.671C256.282 173.519 255.661 173.469 255.045 173.522C255.569 173.361 255.49 172.54 255.089 172.166C254.688 171.792 254.115 171.635 253.738 171.238C253.36 170.841 253.39 169.992 253.935 169.926L253.868 169.733C252.784 169.328 251.576 169.879 251.172 170.963C251.137 171.055 251.109 171.15 251.088 171.247C250.988 171.868 251.174 172.556 250.862 173.102C250.465 173.799 249.5 173.878 248.701 173.801C247.917 173.6 247.085 173.713 246.384 174.117C245.803 174.6 245.725 175.462 246.208 176.042C246.476 176.364 246.877 176.545 247.296 176.533C246.771 176.537 246.248 176.606 245.739 176.739L246.229 176.928C246.338 176.962 246.438 177.019 246.524 177.094C246.61 177.173 246.636 177.298 246.59 177.405C246.511 177.547 246.309 177.542 246.149 177.518L245.084 177.358C245.296 177.429 245.41 177.657 245.34 177.869C245.269 178.081 245.04 178.195 244.828 178.125C244.774 178.107 244.724 178.077 244.682 178.038C244.791 178.166 244.879 178.31 244.942 178.466C245.005 178.625 244.986 178.804 244.893 178.947C244.676 179.146 244.358 179.184 244.1 179.044C244.013 179.01 243.926 178.972 243.838 178.936C243.84 178.967 243.842 178.998 243.846 179.029C243.905 179.438 244.133 179.803 244.474 180.036C243.991 180.092 243.547 180.326 243.228 180.692C242.673 181.38 242.64 182.352 243.146 183.076C242.608 182.839 242.02 182.741 241.435 182.793C240.833 182.867 240.383 183.379 240.386 183.985C240.483 184.727 241.402 184.998 242.145 185.09C247.986 185.809 253.893 185.808 259.733 185.088C260.527 185.035 261.304 184.837 262.027 184.505C262.758 184.159 263.261 183.463 263.36 182.661C263.328 181.694 262.718 180.841 261.813 180.499Z" fill="#5CDB95"/>
<path d="M266.149 189.094C266.015 188.517 265.5 188.109 264.907 188.112C264.343 188.127 263.838 188.53 263.284 188.441C262.824 188.368 262.462 187.966 261.999 188.028C261.575 188.084 261.347 188.498 261.031 188.721H260.219C259.902 188.472 259.747 187.968 259.309 187.827C258.648 187.614 258.118 188.359 257.426 188.491C257.026 188.535 256.621 188.458 256.266 188.269C255.917 188.08 255.539 187.952 255.147 187.891C254.796 187.838 254.445 187.992 254.246 188.286C254.267 188.076 253.993 187.869 253.715 187.856C253.404 187.867 253.102 187.96 252.838 188.126C252.574 188.291 252.268 188.378 251.956 188.378C251.265 188.318 250.926 187.51 250.231 187.502C249.357 187.49 249.007 188.736 248.142 188.63C247.692 188.575 247.449 188.166 247.048 187.992C246.623 187.861 246.169 187.857 245.74 187.979L243.695 188.362C243.095 188.527 242.463 188.534 241.86 188.38C241.421 188.221 240.995 187.877 240.542 188.008C240.148 188.122 239.956 188.564 239.539 188.586C239.272 188.553 239.015 188.465 238.784 188.328C238.342 188.172 237.848 188.296 237.533 188.644C237.304 189.577 237.267 190.546 237.424 191.494C237.418 191.696 237.434 191.898 237.472 192.096L239.53 200.328C239.771 201.591 240.396 202.504 241.682 202.504H261.68C262.965 202.504 264.07 201.591 264.312 200.328L266.369 192.096C266.373 192.075 266.376 192.054 266.38 192.033C266.428 191.047 266.351 190.06 266.149 189.094Z" fill="#001835"/>
<path opacity="0.2" d="M241.698 188.475L242.098 193.671C242.231 195.403 242.034 197.111 242.167 198.843C242.242 199.819 242.648 200.818 242.723 201.794C242.732 201.909 242.912 201.91 242.903 201.794L242.503 196.598L242.103 191.401L241.878 188.475C241.869 188.36 241.689 188.359 241.698 188.475Z" fill="black"/>
<path opacity="0.2" d="M245.171 188.681L245.327 193.801L245.483 198.921L245.57 201.796C245.574 201.912 245.754 201.912 245.75 201.796L245.594 196.676L245.438 191.555L245.351 188.681C245.348 188.565 245.167 188.565 245.171 188.681Z" fill="black"/>
<path opacity="0.2" d="M248.535 188.988L248.488 193.936L248.441 198.855L248.414 201.644C248.416 201.694 248.458 201.733 248.507 201.731C248.555 201.729 248.593 201.691 248.594 201.644L248.642 196.696L248.689 191.777L248.716 188.988C248.714 188.938 248.672 188.899 248.622 188.901C248.575 188.903 248.537 188.941 248.535 188.988Z" fill="black"/>
<path opacity="0.2" d="M251.077 188.836L251.176 193.846L251.274 198.826L251.329 201.645C251.331 201.695 251.373 201.734 251.422 201.732C251.47 201.731 251.508 201.693 251.509 201.645L251.411 196.636L251.313 191.656L251.257 188.836C251.256 188.787 251.214 188.748 251.164 188.75C251.117 188.751 251.079 188.789 251.077 188.836Z" fill="black"/>
<path opacity="0.2" d="M254.781 188.631L254.894 193.774L255.007 198.917L255.07 201.796C255.072 201.846 255.113 201.885 255.163 201.883C255.21 201.882 255.248 201.844 255.25 201.796L255.137 196.653L255.025 191.51L254.962 188.631C254.96 188.581 254.918 188.542 254.868 188.544C254.821 188.546 254.783 188.584 254.781 188.631Z" fill="black"/>
<path opacity="0.2" d="M257.857 188.787L258.249 193.969L258.641 199.136L258.862 202.048C258.87 202.163 259.051 202.164 259.042 202.048L258.649 196.866L258.258 191.699L258.037 188.787C258.028 188.672 257.848 188.671 257.857 188.787Z" fill="black"/>
<path opacity="0.2" d="M261.274 189.391L261.51 194.132C261.589 195.713 261.188 197.293 261.267 198.874L261.4 201.537C261.406 201.652 261.586 201.653 261.58 201.537C261.501 199.956 261.902 198.375 261.823 196.795L261.587 192.053L261.454 189.391C261.448 189.275 261.268 189.275 261.274 189.391Z" fill="black"/>
<path d="M250.84 176.4C251.221 176.4 251.53 176.185 251.53 175.92C251.53 175.655 251.221 175.44 250.84 175.44C250.459 175.44 250.15 175.655 250.15 175.92C250.15 176.185 250.459 176.4 250.84 176.4Z" fill="#70E2A3"/>
<path d="M255.222 177.48C255.603 177.48 255.912 177.265 255.912 177C255.912 176.735 255.603 176.52 255.222 176.52C254.841 176.52 254.531 176.735 254.531 177C254.531 177.265 254.841 177.48 255.222 177.48Z" fill="#6688A9"/>
<path d="M249.1 179.82C249.481 179.82 249.79 179.605 249.79 179.34C249.79 179.075 249.481 178.86 249.1 178.86C248.718 178.86 248.409 179.075 248.409 179.34C248.409 179.605 248.718 179.82 249.1 179.82Z" fill="#FF6584"/>
<path d="M254.808 180.453C255.048 180.453 255.244 180.317 255.244 180.15C255.244 179.982 255.048 179.846 254.808 179.846C254.567 179.846 254.371 179.982 254.371 180.15C254.371 180.317 254.567 180.453 254.808 180.453Z" fill="#70E2A3"/>
<path d="M257.577 181.136C257.818 181.136 258.013 181 258.013 180.832C258.013 180.665 257.818 180.529 257.577 180.529C257.336 180.529 257.14 180.665 257.14 180.832C257.14 181 257.336 181.136 257.577 181.136Z" fill="#6688A9"/>
<path d="M253.707 182.615C253.948 182.615 254.144 182.479 254.144 182.311C254.144 182.144 253.948 182.008 253.707 182.008C253.467 182.008 253.271 182.144 253.271 182.311C253.271 182.479 253.467 182.615 253.707 182.615Z" fill="#FF6584"/>
<path d="M258.889 182.133C259.13 182.133 259.325 181.998 259.325 181.83C259.325 181.662 259.13 181.527 258.889 181.527C258.648 181.527 258.453 181.662 258.453 181.83C258.453 181.998 258.648 182.133 258.889 182.133Z" fill="#70E2A3"/>
<path d="M261.658 182.816C261.899 182.816 262.094 182.68 262.094 182.513C262.094 182.345 261.899 182.209 261.658 182.209C261.417 182.209 261.222 182.345 261.222 182.513C261.222 182.68 261.417 182.816 261.658 182.816Z" fill="#6688A9"/>
<path d="M257.789 184.295C258.03 184.295 258.225 184.159 258.225 183.992C258.225 183.824 258.03 183.688 257.789 183.688C257.548 183.688 257.353 183.824 257.353 183.992C257.353 184.159 257.548 184.295 257.789 184.295Z" fill="#FF6584"/>
<path d="M247.644 180.533C247.677 180.294 247.569 180.082 247.403 180.059C247.237 180.036 247.076 180.211 247.043 180.45C247.01 180.689 247.118 180.901 247.284 180.923C247.45 180.946 247.611 180.771 247.644 180.533Z" fill="#70E2A3"/>
<path d="M246.59 183.183C246.623 182.944 246.515 182.732 246.349 182.709C246.183 182.686 246.021 182.861 245.988 183.1C245.956 183.338 246.064 183.55 246.23 183.573C246.396 183.596 246.557 183.421 246.59 183.183Z" fill="#6688A9"/>
<path d="M245.652 179.148C245.685 178.91 245.577 178.698 245.411 178.675C245.245 178.652 245.084 178.827 245.051 179.065C245.018 179.304 245.126 179.516 245.292 179.539C245.458 179.562 245.619 179.387 245.652 179.148Z" fill="#FF6584"/>
<path d="M252.386 179.093C252.419 178.854 252.311 178.642 252.145 178.619C251.979 178.596 251.818 178.771 251.785 179.01C251.752 179.248 251.86 179.46 252.026 179.483C252.192 179.506 252.353 179.331 252.386 179.093Z" fill="#70E2A3"/>
<path d="M251.331 181.742C251.364 181.504 251.256 181.292 251.09 181.269C250.924 181.246 250.763 181.421 250.73 181.659C250.697 181.898 250.805 182.11 250.971 182.133C251.137 182.156 251.299 181.981 251.331 181.742Z" fill="#6688A9"/>
<path d="M250.394 177.708C250.427 177.47 250.319 177.258 250.153 177.235C249.987 177.212 249.826 177.387 249.793 177.625C249.76 177.864 249.868 178.076 250.034 178.099C250.2 178.122 250.361 177.947 250.394 177.708Z" fill="#FF6584"/>
<path d="M253.67 176.161C253.703 175.922 253.595 175.71 253.429 175.687C253.263 175.664 253.102 175.839 253.069 176.078C253.036 176.316 253.144 176.528 253.31 176.551C253.476 176.574 253.637 176.399 253.67 176.161Z" fill="#6688A9"/>
<path d="M252.735 172.127C252.768 171.889 252.66 171.677 252.494 171.654C252.328 171.631 252.166 171.806 252.134 172.045C252.101 172.283 252.209 172.495 252.375 172.518C252.541 172.541 252.702 172.366 252.735 172.127Z" fill="#FF6584"/>
<path d="M422.622 197.261H404.257C403.764 197.261 401.045 195.823 401.045 194.049V183.85C400.957 176.135 426.219 175.63 426.314 183.85V194.049C426.314 195.823 424.396 197.261 422.622 197.261Z" fill="#70E2A3"/>
<path d="M423.572 176.936C422.681 176.617 421.735 176.482 420.791 176.537C421.043 176.454 421.276 176.318 421.472 176.138C421.299 176.131 421.128 176.108 420.959 176.069C420.774 176.035 420.599 175.956 420.45 175.841C420.299 175.723 420.219 175.537 420.236 175.346C420.27 175.113 420.488 174.92 420.466 174.686C420.44 174.417 420.13 174.286 419.964 174.073C419.756 173.743 419.791 173.315 420.051 173.024C420.209 172.84 420.402 172.69 420.619 172.582C420.253 172.488 419.868 172.494 419.504 172.599C419.894 172.297 420.067 171.792 419.945 171.315C419.739 170.721 419.25 170.268 418.642 170.108C418.041 169.957 417.42 169.907 416.804 169.959C417.328 169.798 417.249 168.977 416.848 168.603C416.447 168.229 415.874 168.073 415.497 167.675C415.119 167.278 415.149 166.43 415.694 166.364L415.627 166.17C414.543 165.765 413.335 166.316 412.931 167.4C412.896 167.493 412.868 167.588 412.847 167.684C412.747 168.306 412.933 168.993 412.621 169.539C412.223 170.236 411.259 170.315 410.46 170.238C409.676 170.037 408.844 170.15 408.143 170.554C407.562 171.037 407.484 171.899 407.967 172.479C408.235 172.801 408.636 172.982 409.055 172.97C408.53 172.974 408.007 173.043 407.498 173.176L407.988 173.366C408.097 173.399 408.197 173.456 408.283 173.531C408.369 173.61 408.395 173.735 408.349 173.842C408.27 173.984 408.068 173.979 407.908 173.955L406.843 173.795C407.055 173.866 407.169 174.095 407.098 174.306C407.028 174.518 406.799 174.633 406.587 174.562C406.533 174.544 406.483 174.514 406.441 174.475C406.55 174.603 406.638 174.748 406.701 174.903C406.764 175.062 406.745 175.242 406.652 175.384C406.435 175.583 406.117 175.622 405.859 175.481C405.772 175.448 405.685 175.409 405.597 175.373C405.599 175.404 405.601 175.435 405.605 175.466C405.664 175.875 405.892 176.24 406.233 176.473C405.75 176.529 405.306 176.763 404.987 177.129C404.432 177.818 404.399 178.789 404.905 179.513C404.367 179.276 403.779 179.178 403.194 179.23C402.592 179.304 402.142 179.817 402.146 180.422C402.242 181.164 403.161 181.436 403.904 181.528C409.745 182.246 415.652 182.246 421.492 181.526C422.286 181.472 423.063 181.274 423.786 180.942C424.517 180.596 425.02 179.901 425.119 179.098C425.087 178.131 424.477 177.278 423.572 176.936Z" fill="#5CDB95"/>
<path d="M427.908 185.532C427.775 184.954 427.259 184.546 426.666 184.549C426.102 184.564 425.597 184.967 425.043 184.879C424.583 184.805 424.221 184.404 423.758 184.465C423.334 184.521 423.106 184.935 422.79 185.158H421.978C421.662 184.909 421.506 184.405 421.068 184.264C420.407 184.051 419.877 184.796 419.186 184.928C418.785 184.972 418.381 184.895 418.025 184.706C417.676 184.517 417.298 184.389 416.907 184.328C416.555 184.275 416.204 184.429 416.005 184.724C416.027 184.513 415.753 184.306 415.474 184.293C415.163 184.304 414.861 184.397 414.598 184.563C414.333 184.728 414.027 184.816 413.715 184.815C413.024 184.755 412.686 183.948 411.991 183.939C411.116 183.928 410.766 185.173 409.901 185.067C409.451 185.012 409.209 184.604 408.808 184.429C408.382 184.298 407.928 184.294 407.5 184.416L405.454 184.799C404.854 184.965 404.222 184.971 403.619 184.817C403.18 184.658 402.754 184.315 402.302 184.446C401.908 184.56 401.715 185.001 401.298 185.024C401.031 184.99 400.774 184.902 400.543 184.766C400.101 184.609 399.608 184.733 399.292 185.081C399.063 186.014 399.026 186.983 399.183 187.931C399.177 188.133 399.193 188.335 399.231 188.534L401.289 196.766C401.531 198.028 402.155 198.941 403.441 198.941H423.439C424.724 198.941 425.829 198.028 426.071 196.766L428.128 188.534C428.132 188.512 428.135 188.491 428.139 188.47C428.187 187.485 428.11 186.497 427.908 185.532Z" fill="#001835"/>
<path opacity="0.2" d="M403.457 184.912L403.857 190.108C403.99 191.84 403.793 193.548 403.926 195.28C404.002 196.256 404.407 197.255 404.482 198.231C404.491 198.346 404.671 198.347 404.662 198.231L404.262 193.035L403.863 187.839L403.637 184.912C403.629 184.797 403.448 184.796 403.457 184.912Z" fill="black"/>
<path opacity="0.2" d="M406.93 185.118L407.086 190.238L407.242 195.359L407.329 198.233C407.333 198.349 407.513 198.349 407.509 198.233L407.354 193.113L407.198 187.992L407.11 185.118C407.107 185.002 406.927 185.002 406.93 185.118Z" fill="black"/>
<path opacity="0.2" d="M410.295 185.425L410.247 190.374L410.2 195.292L410.174 198.081C410.175 198.131 410.217 198.17 410.267 198.168C410.314 198.167 410.352 198.129 410.354 198.081L410.401 193.133L410.448 188.214L410.475 185.425C410.473 185.375 410.431 185.336 410.382 185.338C410.334 185.34 410.296 185.378 410.295 185.425Z" fill="black"/>
<path opacity="0.2" d="M412.836 185.274L412.935 190.283L413.033 195.263L413.088 198.083C413.09 198.132 413.132 198.171 413.182 198.17C413.229 198.168 413.267 198.13 413.268 198.083L413.17 193.073L413.072 188.094L413.016 185.274C413.015 185.224 412.973 185.185 412.923 185.187C412.876 185.188 412.838 185.226 412.836 185.274Z" fill="black"/>
<path opacity="0.2" d="M416.541 185.068L416.653 190.211L416.766 195.354L416.829 198.233C416.831 198.283 416.873 198.322 416.922 198.32C416.97 198.319 417.008 198.281 417.009 198.233L416.897 193.09L416.784 187.947L416.721 185.068C416.719 185.018 416.677 184.979 416.627 184.981C416.58 184.983 416.543 185.021 416.541 185.068Z" fill="black"/>
<path opacity="0.2" d="M419.616 185.224L420.009 190.406L420.4 195.573L420.621 198.486C420.63 198.6 420.81 198.601 420.801 198.486L420.408 193.303L420.017 188.136L419.796 185.224C419.787 185.109 419.607 185.108 419.616 185.224Z" fill="black"/>
<path opacity="0.2" d="M423.033 185.828L423.27 190.569C423.349 192.15 422.947 193.73 423.026 195.311L423.159 197.974C423.165 198.089 423.345 198.09 423.339 197.974C423.26 196.393 423.662 194.812 423.583 193.232L423.346 188.49L423.213 185.828C423.207 185.712 423.027 185.712 423.033 185.828Z" fill="black"/>
<path d="M412.599 172.837C412.981 172.837 413.29 172.622 413.29 172.357C413.29 172.092 412.981 171.877 412.599 171.877C412.218 171.877 411.909 172.092 411.909 172.357C411.909 172.622 412.218 172.837 412.599 172.837Z" fill="#70E2A3"/>
<path d="M416.981 173.917C417.362 173.917 417.671 173.702 417.671 173.437C417.671 173.172 417.362 172.957 416.981 172.957C416.6 172.957 416.291 173.172 416.291 173.437C416.291 173.702 416.6 173.917 416.981 173.917Z" fill="#6688A9"/>
<path d="M410.859 176.258C411.24 176.258 411.549 176.043 411.549 175.777C411.549 175.512 411.24 175.297 410.859 175.297C410.478 175.297 410.169 175.512 410.169 175.777C410.169 176.043 410.478 176.258 410.859 176.258Z" fill="#FF6584"/>
<path d="M416.567 176.89C416.807 176.89 417.003 176.754 417.003 176.587C417.003 176.419 416.807 176.283 416.567 176.283C416.326 176.283 416.13 176.419 416.13 176.587C416.13 176.754 416.326 176.89 416.567 176.89Z" fill="#70E2A3"/>
<path d="M419.336 177.573C419.577 177.573 419.772 177.437 419.772 177.269C419.772 177.102 419.577 176.966 419.336 176.966C419.095 176.966 418.9 177.102 418.9 177.269C418.9 177.437 419.095 177.573 419.336 177.573Z" fill="#6688A9"/>
<path d="M415.466 179.052C415.707 179.052 415.903 178.916 415.903 178.749C415.903 178.581 415.707 178.445 415.466 178.445C415.226 178.445 415.03 178.581 415.03 178.749C415.03 178.916 415.226 179.052 415.466 179.052Z" fill="#FF6584"/>
<path d="M420.648 178.57C420.889 178.57 421.084 178.435 421.084 178.267C421.084 178.099 420.889 177.964 420.648 177.964C420.407 177.964 420.212 178.099 420.212 178.267C420.212 178.435 420.407 178.57 420.648 178.57Z" fill="#70E2A3"/>
<path d="M423.417 179.253C423.658 179.253 423.853 179.117 423.853 178.95C423.853 178.782 423.658 178.646 423.417 178.646C423.176 178.646 422.981 178.782 422.981 178.95C422.981 179.117 423.176 179.253 423.417 179.253Z" fill="#6688A9"/>
<path d="M419.548 180.732C419.789 180.732 419.984 180.596 419.984 180.429C419.984 180.261 419.789 180.125 419.548 180.125C419.307 180.125 419.112 180.261 419.112 180.429C419.112 180.596 419.307 180.732 419.548 180.732Z" fill="#FF6584"/>
<path d="M409.403 176.97C409.436 176.731 409.328 176.519 409.162 176.497C408.996 176.474 408.835 176.649 408.802 176.887C408.769 177.126 408.877 177.338 409.043 177.361C409.209 177.384 409.37 177.209 409.403 176.97Z" fill="#70E2A3"/>
<path d="M408.349 179.619C408.382 179.381 408.274 179.169 408.108 179.146C407.942 179.123 407.781 179.298 407.748 179.537C407.715 179.775 407.823 179.987 407.989 180.01C408.155 180.033 408.316 179.858 408.349 179.619Z" fill="#6688A9"/>
<path d="M407.412 175.586C407.444 175.347 407.336 175.135 407.17 175.112C407.004 175.089 406.843 175.264 406.81 175.503C406.777 175.741 406.885 175.953 407.051 175.976C407.217 175.999 407.379 175.824 407.412 175.586Z" fill="#FF6584"/>
<path d="M414.145 175.53C414.178 175.291 414.07 175.079 413.904 175.056C413.738 175.034 413.577 175.208 413.544 175.447C413.511 175.686 413.619 175.898 413.785 175.921C413.951 175.943 414.112 175.769 414.145 175.53Z" fill="#70E2A3"/>
<path d="M413.091 178.179C413.124 177.941 413.016 177.729 412.85 177.706C412.684 177.683 412.522 177.858 412.489 178.096C412.457 178.335 412.565 178.547 412.731 178.57C412.897 178.593 413.058 178.418 413.091 178.179Z" fill="#6688A9"/>
<path d="M412.153 174.145C412.186 173.906 412.078 173.694 411.912 173.672C411.746 173.649 411.585 173.824 411.552 174.062C411.519 174.301 411.627 174.513 411.793 174.536C411.959 174.559 412.12 174.384 412.153 174.145Z" fill="#FF6584"/>
<path d="M415.429 172.598C415.462 172.359 415.354 172.147 415.188 172.124C415.022 172.101 414.86 172.276 414.828 172.515C414.795 172.754 414.903 172.966 415.069 172.988C415.235 173.011 415.396 172.836 415.429 172.598Z" fill="#6688A9"/>
<path d="M414.494 168.564C414.527 168.326 414.419 168.114 414.253 168.091C414.087 168.068 413.926 168.243 413.893 168.481C413.86 168.72 413.968 168.932 414.134 168.955C414.3 168.978 414.461 168.803 414.494 168.564Z" fill="#FF6584"/>
</g>
<defs>
<clipPath id="clip0_107_6008">
<rect width="697" height="439" fill="white"/>
</clipPath>
</defs>
</svg>
