<svg width="560" height="399" viewBox="0 0 560 399" fill="none" xmlns="http://www.w3.org/2000/svg">
<g clip-path="url(#clip0_107_5660)">
<path d="M556.915 370.784C556.854 370.948 556.73 371.08 556.572 371.153C556.413 371.226 556.232 371.233 556.068 371.172L32.4608 176.134C32.2974 176.072 32.165 175.949 32.0926 175.79C32.0202 175.631 32.0137 175.45 32.0745 175.286C32.1354 175.122 32.2586 174.989 32.4172 174.917C32.5757 174.844 32.7567 174.837 32.9204 174.897L556.527 369.936C556.691 369.997 556.823 370.121 556.896 370.28C556.969 370.439 556.976 370.62 556.915 370.784Z" fill="#5CDB95"/>
<path d="M277.994 0H153.226C143.439 0.0110859 134.055 3.90803 127.134 10.8359C120.214 17.7637 116.321 27.1567 116.31 36.9542V48.2434C116.054 48.1728 115.785 48.1628 115.524 48.2142C115.264 48.2655 115.018 48.3768 114.808 48.5393C114.598 48.7017 114.428 48.9108 114.313 49.1502C114.197 49.3895 114.138 49.6525 114.142 49.9183V58.5998C114.138 58.8656 114.197 59.1286 114.313 59.3679C114.428 59.6072 114.598 59.8164 114.808 59.9788C115.018 60.1412 115.264 60.2525 115.524 60.3039C115.785 60.3552 116.054 60.3452 116.31 60.2747V73.4196C116.054 73.349 115.785 73.339 115.524 73.3904C115.264 73.4417 115.018 73.553 114.808 73.7154C114.598 73.8778 114.428 74.087 114.313 74.3263C114.197 74.5657 114.138 74.8286 114.142 75.0945V96.7981C114.138 97.064 114.197 97.327 114.313 97.5663C114.428 97.8056 114.598 98.0148 114.808 98.1772C115.018 98.3397 115.264 98.4509 115.524 98.5023C115.785 98.5536 116.054 98.5436 116.31 98.473V106.409C116.054 106.339 115.785 106.328 115.524 106.38C115.264 106.431 115.018 106.542 114.808 106.705C114.598 106.867 114.428 107.076 114.313 107.316C114.197 107.555 114.138 107.818 114.142 108.084V129.788C114.138 130.053 114.197 130.316 114.313 130.556C114.428 130.795 114.598 131.004 114.808 131.167C115.018 131.329 115.264 131.44 115.524 131.492C115.785 131.543 116.054 131.533 116.31 131.462V360.656C116.321 370.453 120.214 379.846 127.134 386.774C134.055 393.702 143.439 397.599 153.226 397.61H277.994C287.781 397.599 297.164 393.702 304.085 386.774C311.006 379.846 314.899 370.453 314.91 360.656V36.9542C314.899 27.1567 311.006 17.7637 304.085 10.8359C297.164 3.90803 287.781 0.0110859 277.994 0ZM307.104 360.656C307.096 368.382 304.026 375.789 298.568 381.252C293.111 386.715 285.712 389.788 277.994 389.797H153.226C145.508 389.788 138.109 386.715 132.651 381.252C127.194 375.789 124.124 368.382 124.115 360.656V36.9542C124.124 29.2282 127.194 21.8212 132.651 16.3582C138.109 10.8951 145.508 7.82206 153.226 7.8133H277.994C285.712 7.82205 293.111 10.8951 298.568 16.3581C304.026 21.8212 307.096 29.2282 307.104 36.9542V360.656Z" fill="#255380"/>
<path d="M277.994 394.137H153.226C144.358 394.127 135.857 390.597 129.586 384.32C123.316 378.043 119.789 369.533 119.779 360.656V36.9543C119.789 28.0775 123.316 19.5672 129.586 13.2903C135.857 7.01349 144.358 3.48273 153.226 3.47266H277.994C286.861 3.48273 295.363 7.01348 301.633 13.2903C307.903 19.5672 311.431 28.0775 311.441 36.9543V360.656C311.431 369.533 307.903 378.043 301.633 384.32C295.363 390.597 286.861 394.127 277.994 394.137Z" fill="#AABDD1"/>
<path d="M281.077 388.928H150.143C144.162 388.922 138.428 386.54 134.199 382.307C129.97 378.073 127.591 372.334 127.584 366.347V31.2633C127.591 25.2763 129.97 19.5365 134.199 15.303C138.428 11.0695 144.162 8.68821 150.143 8.68142H167.218C168.207 8.68255 169.154 9.07615 169.853 9.77587C170.552 10.4756 170.945 11.4243 170.946 12.4138C170.95 15.3371 172.111 18.1397 174.176 20.2068C176.241 22.2739 179.041 23.4366 181.961 23.4399H247.524C250.444 23.4366 253.244 22.2739 255.309 20.2068C257.374 18.1397 258.535 15.3371 258.539 12.4138C258.54 11.4243 258.933 10.4756 259.632 9.77586C260.331 9.07614 261.278 8.68253 262.267 8.6814H281.077C287.058 8.68818 292.792 11.0695 297.021 15.303C301.25 19.5364 303.629 25.2763 303.635 31.2633V366.347C303.629 372.334 301.25 378.073 297.021 382.307C292.792 386.54 287.058 388.922 281.077 388.928Z" fill="white"/>
<path d="M221.247 16.2778H205.636C205.176 16.2778 204.735 16.0948 204.41 15.7692C204.085 15.4436 203.902 15.002 203.902 14.5415C203.902 14.081 204.085 13.6393 204.41 13.3137C204.735 12.9881 205.176 12.8052 205.636 12.8052H221.247C221.707 12.8052 222.148 12.9881 222.473 13.3137C222.799 13.6393 222.981 14.081 222.981 14.5415C222.981 15.002 222.799 15.4436 222.473 15.7692C222.148 16.0948 221.707 16.2778 221.247 16.2778Z" fill="white"/>
<path d="M232.087 15.8437C232.566 15.8437 232.955 15.455 232.955 14.9756C232.955 14.4961 232.566 14.1074 232.087 14.1074C231.608 14.1074 231.22 14.4961 231.22 14.9756C231.22 15.455 231.608 15.8437 232.087 15.8437Z" fill="white"/>
<path d="M307.853 76.5024H123.194V78.481H307.853V76.5024Z" fill="#AABDD1"/>
<path d="M307.853 116.073H123.194V118.051H307.853V116.073Z" fill="#AABDD1"/>
<path d="M307.853 197.851H123.194V199.83H307.853V197.851Z" fill="#AABDD1"/>
<path d="M307.853 279.63H123.194V281.608H307.853V279.63Z" fill="#AABDD1"/>
<path d="M307.853 343.602H123.194V345.58H307.853V343.602Z" fill="#AABDD1"/>
<path d="M257.298 77.4917H255.321V198.84H257.298V77.4917Z" fill="#AABDD1"/>
<path d="M164.855 198.805H162.879V344.591H164.855V198.805Z" fill="#AABDD1"/>
<path d="M303.635 238.795H163.867V240.773H303.635V238.795Z" fill="#AABDD1"/>
<path d="M257.511 344.591H255.534V388.928H257.511V344.591Z" fill="#AABDD1"/>
<path d="M255.98 157.772H127.255V159.751H255.98V157.772Z" fill="#AABDD1"/>
<path d="M154.137 7.43123L152.314 8.19507L181.444 77.8735L183.267 77.1097L154.137 7.43123Z" fill="#AABDD1"/>
<path d="M243.852 23.4397H241.875V77.4917H243.852V23.4397Z" fill="#AABDD1"/>
<path d="M294.817 107.499C294.817 125.227 267.437 166.535 259.435 178.229C259.194 178.582 258.87 178.872 258.492 179.071C258.113 179.271 257.692 179.376 257.264 179.376C256.836 179.376 256.415 179.271 256.037 179.071C255.658 178.872 255.335 178.582 255.093 178.229C247.092 166.535 219.711 125.227 219.711 107.499C219.711 97.5293 223.668 87.9677 230.71 80.9178C237.753 73.868 247.304 69.9075 257.264 69.9075C267.224 69.9075 276.776 73.868 283.818 80.9178C290.861 87.9677 294.817 97.5293 294.817 107.499Z" fill="#5CDB95"/>
<path d="M257.264 123.987C267.816 123.987 276.37 115.424 276.37 104.861C276.37 94.2984 267.816 85.7356 257.264 85.7356C246.712 85.7356 238.158 94.2984 238.158 104.861C238.158 115.424 246.712 123.987 257.264 123.987Z" fill="white"/>
<path d="M256.013 199.409L183.657 344.126L185.424 345.011L257.78 200.295L256.013 199.409Z" fill="#AABDD1"/>
<path d="M360.218 231.242C361.071 231.701 362.014 231.967 362.981 232.022C363.948 232.077 364.915 231.918 365.814 231.558C366.714 231.198 367.523 230.645 368.186 229.938C368.849 229.231 369.348 228.387 369.65 227.466L393.189 227.059L386.279 216.953L364.985 218.889C363.405 218.484 361.732 218.674 360.282 219.422C358.833 220.169 357.708 221.423 357.12 222.946C356.532 224.469 356.523 226.154 357.094 227.683C357.665 229.212 358.776 230.478 360.218 231.242Z" fill="#FFB8B8"/>
<path d="M374.349 230.948C373.984 230.948 373.623 230.874 373.287 230.73C372.952 230.587 372.649 230.377 372.397 230.113C372.144 229.849 371.948 229.537 371.82 229.195C371.691 228.854 371.633 228.489 371.649 228.124L372.125 217.319C372.151 216.676 372.406 216.063 372.845 215.592C373.283 215.121 373.876 214.823 374.516 214.752L401.785 211.621L400.871 229.627L374.482 230.944C374.438 230.947 374.393 230.948 374.349 230.948Z" fill="#5CDB95"/>
<path d="M407.56 379.053L399.882 381.563L386.556 353.112L397.888 349.408L407.56 379.053Z" fill="#FFB8B8"/>
<path d="M411.949 385.863L387.193 393.957L387.09 393.644C386.677 392.377 386.517 391.041 386.619 389.713C386.722 388.384 387.084 387.088 387.687 385.9C388.289 384.712 389.12 383.654 390.131 382.787C391.142 381.92 392.313 381.261 393.579 380.847L408.7 375.904L411.949 385.863Z" fill="black"/>
<path d="M430.175 390.951L422.098 390.951L418.255 359.764L430.176 359.765L430.175 390.951Z" fill="#FFB8B8"/>
<path d="M432.235 398.789L406.191 398.788V398.458C406.191 397.126 406.453 395.806 406.963 394.575C407.472 393.344 408.219 392.225 409.16 391.283C410.101 390.341 411.219 389.593 412.449 389.083C413.679 388.573 414.997 388.311 416.328 388.311H416.329L432.235 388.312L432.235 398.789Z" fill="black"/>
<path d="M417.907 383.361C417.247 383.36 416.61 383.117 416.116 382.678C415.622 382.24 415.306 381.635 415.227 380.979L404.813 293.828L389.569 318.324L407.455 364.078C407.698 364.711 407.697 365.411 407.452 366.043C407.206 366.675 406.734 367.192 406.127 367.493L390.955 374.925C390.608 375.095 390.23 375.188 389.844 375.199C389.459 375.21 389.076 375.139 388.72 374.989C388.365 374.839 388.046 374.615 387.784 374.332C387.522 374.049 387.324 373.712 387.203 373.346L370.389 322.493C369.122 318.666 368.956 314.559 369.911 310.642L380.783 265.98L380.911 265.91L405.418 252.472L405.558 252.523L434.42 263.068L431.4 320.325L433.594 379.752C433.624 380.458 433.375 381.147 432.901 381.671C432.427 382.195 431.767 382.511 431.062 382.551L418.076 383.356C418.02 383.359 417.963 383.361 417.907 383.361Z" fill="black"/>
<path d="M402.009 282.951C397.697 282.951 394.064 281.721 391.791 278.596L391.717 278.495L393.188 263.046L380.107 270.315C379.836 270.465 379.525 270.529 379.217 270.497C378.908 270.465 378.617 270.339 378.382 270.136C378.147 269.934 377.98 269.663 377.904 269.363C377.827 269.062 377.845 268.744 377.954 268.454L394.267 225.086L405.039 189.758C405.573 186.93 406.953 184.332 408.995 182.307C411.037 180.281 413.646 178.925 416.475 178.417C426.071 176.652 431.786 179.893 438.385 187.086C439.981 188.836 441.157 190.928 441.822 193.202C442.487 195.476 442.624 197.872 442.223 200.208L435.98 235.927L437.815 267.953C437.955 268.505 437.917 269.087 437.707 269.617C437.497 270.146 437.125 270.595 436.644 270.9C431.541 274.151 415.896 282.949 402.009 282.951Z" fill="#5CDB95"/>
<path d="M423.84 173.068C432.776 173.068 440.021 165.815 440.021 156.869C440.021 147.924 432.776 140.671 423.84 140.671C414.903 140.671 407.658 147.924 407.658 156.869C407.658 165.815 414.903 173.068 423.84 173.068Z" fill="#FFB8B8"/>
<path d="M428.054 272.334C428.935 271.93 429.716 271.337 430.343 270.599C430.97 269.86 431.427 268.992 431.683 268.057C431.939 267.122 431.987 266.142 431.823 265.186C431.66 264.231 431.289 263.322 430.737 262.526L444.615 243.488L432.394 242.908L421.089 261.075C419.814 262.092 418.955 263.542 418.677 265.151C418.398 266.759 418.718 268.414 419.576 269.801C420.435 271.189 421.772 272.214 423.335 272.68C424.897 273.147 426.577 273.024 428.054 272.334Z" fill="#FFB8B8"/>
<path d="M435.57 261.591C434.893 261.688 434.204 261.524 433.643 261.132L424.456 254.719C423.904 254.336 423.514 253.761 423.364 253.105C423.215 252.45 423.315 251.762 423.646 251.177L440.002 222.046L423.552 202.224C422.688 201.183 422.05 199.974 421.679 198.672C421.307 197.371 421.211 196.007 421.395 194.666C421.579 193.325 422.04 192.038 422.748 190.885C423.457 189.733 424.397 188.74 425.509 187.971C426.622 187.202 427.882 186.674 429.21 186.419C430.537 186.164 431.903 186.189 433.221 186.491C434.539 186.794 435.779 187.368 436.863 188.176C437.947 188.985 438.851 190.01 439.517 191.188L457.681 223.28C457.81 223.508 457.877 223.766 457.877 224.029C457.877 224.291 457.809 224.549 457.68 224.777L437.537 260.25C437.351 260.577 437.099 260.862 436.797 261.086C436.495 261.31 436.15 261.468 435.784 261.552C435.713 261.568 435.642 261.581 435.57 261.591Z" fill="#5CDB95"/>
<path d="M417.373 154.802C415.771 153.605 413.554 153.792 411.656 153.165C410.527 152.791 409.515 152.127 408.722 151.238C407.93 150.35 407.385 149.269 407.141 148.103C406.898 146.937 406.965 145.727 407.337 144.596C407.708 143.464 408.369 142.45 409.255 141.655C411.305 139.817 414.221 139.4 416.952 139.063C420.694 138.602 424.472 138.141 428.224 138.507C431.976 138.874 435.754 140.142 438.496 142.732C441.52 145.587 443.01 149.837 443.019 153.998C442.914 158.178 441.768 162.266 439.684 165.891C439.04 167.268 438.069 168.467 436.856 169.383C435.594 170.217 433.816 170.435 432.6 169.534C431.549 168.756 431.165 167.392 430.69 166.173C430.216 164.954 429.406 163.655 428.112 163.467C426.446 163.225 425.175 164.921 423.586 165.475C421.363 166.251 418.893 164.535 417.986 162.36C417.08 160.185 417.318 157.724 417.573 155.381" fill="black"/>
<path d="M560 398.34C560 398.515 559.93 398.683 559.807 398.806C559.683 398.93 559.516 398.999 559.341 399H0.658824C0.484093 399 0.316518 398.93 0.192964 398.807C0.0694111 398.683 0 398.515 0 398.34C0 398.166 0.0694111 397.998 0.192964 397.874C0.316518 397.75 0.484093 397.681 0.658824 397.681H559.341C559.516 397.681 559.683 397.751 559.807 397.875C559.93 397.998 560 398.166 560 398.34Z" fill="#5CDB95"/>
<path d="M257.264 207.084C261.994 207.084 265.829 203.246 265.829 198.511C265.829 193.776 261.994 189.937 257.264 189.937C252.534 189.937 248.699 193.776 248.699 198.511C248.699 203.246 252.534 207.084 257.264 207.084Z" fill="#5CDB95"/>
<path d="M377.842 104.77C374.265 109.542 358.559 115.125 354.046 116.655C353.91 116.702 353.764 116.714 353.622 116.691C353.48 116.669 353.345 116.611 353.23 116.525C353.115 116.438 353.023 116.325 352.961 116.195C352.9 116.065 352.871 115.921 352.877 115.777C353.083 111.012 354.047 94.356 357.624 89.5839C359.636 86.9001 362.63 85.1262 365.948 84.6524C369.267 84.1787 372.637 85.0438 375.318 87.0575C377.999 89.0713 379.771 92.0687 380.244 95.3903C380.718 98.712 379.853 102.086 377.842 104.77Z" fill="#5CDB95"/>
<path d="M368.265 102.903C371.816 102.903 374.695 100.021 374.695 96.4665C374.695 92.9117 371.816 90.03 368.265 90.03C364.714 90.03 361.835 92.9117 361.835 96.4665C361.835 100.021 364.714 102.903 368.265 102.903Z" fill="white"/>
<path d="M349.369 124.561C350.961 124.561 352.252 123.269 352.252 121.676C352.252 120.082 350.961 118.791 349.369 118.791C347.777 118.791 346.487 120.082 346.487 121.676C346.487 123.269 347.777 124.561 349.369 124.561Z" fill="#5CDB95"/>
<path d="M64.3519 235.667C69.6154 243.717 69.4472 270.621 69.2856 278.312C69.281 278.544 69.2197 278.772 69.1073 278.975C68.9948 279.178 68.8345 279.351 68.6403 279.479C68.446 279.606 68.2237 279.684 67.9926 279.706C67.7615 279.727 67.5285 279.692 67.3139 279.604C60.2086 276.675 35.5107 266.063 30.2473 258.013C28.7795 255.771 27.7674 253.262 27.2687 250.629C26.77 247.996 26.7946 245.29 27.341 242.666C27.8874 240.042 28.945 237.552 30.4532 235.337C31.9615 233.123 33.8908 231.227 36.1311 229.759C38.3714 228.292 40.8786 227.28 43.5096 226.782C46.1405 226.285 48.8436 226.311 51.4644 226.86C54.0852 227.409 56.5723 228.469 58.7836 229.98C60.9949 231.491 62.887 233.424 64.3519 235.667Z" fill="#5CDB95"/>
<path d="M46.5163 256.022C52.2429 256.022 56.8852 251.375 56.8852 245.642C56.8852 239.91 52.2429 235.263 46.5163 235.263C40.7897 235.263 36.1474 239.91 36.1474 245.642C36.1474 251.375 40.7897 256.022 46.5163 256.022Z" fill="white"/>
<path d="M74.3217 292.821C76.8888 292.821 78.9698 290.737 78.9698 288.168C78.9698 285.598 76.8888 283.515 74.3217 283.515C71.7546 283.515 69.6735 285.598 69.6735 288.168C69.6735 290.737 71.7546 292.821 74.3217 292.821Z" fill="#5CDB95"/>
</g>
<defs>
<clipPath id="clip0_107_5660">
<rect width="560" height="399" fill="white"/>
</clipPath>
</defs>
</svg>
