<svg width="77" height="30" viewBox="0 0 77 30" fill="none" xmlns="http://www.w3.org/2000/svg">
<path d="M13.08 23L8.408 15.48H5.016V23H0.632V0.279999H8.6C13.432 0.279999 16.632 3.352 16.632 7.992C16.632 11.256 15.064 13.624 12.44 14.744L17.752 23H13.08ZM5.016 11.672H8.152C10.552 11.672 12.184 10.648 12.184 7.992C12.184 5.368 10.552 4.312 8.152 4.312H5.016V11.672ZM23.9053 23.32C19.3293 23.32 15.2332 20.216 15.2332 14.68C15.2332 9.08 19.3932 6.04 23.6493 6.04C27.8733 6.04 32.6733 9.016 31.7453 16.344H19.2973C19.9053 18.616 21.8893 19.8 24.3853 19.8C26.0173 19.8 27.4573 19.352 28.6733 18.296L30.6253 20.376C29.2493 22.104 26.8493 23.32 23.9053 23.32ZM19.2333 13.208H27.9373C27.6813 10.84 25.6973 9.656 23.6813 9.656C21.6973 9.656 19.7773 10.808 19.2333 13.208ZM36.2457 23.32C32.9497 23.32 30.5177 21.72 30.0057 18.648L33.4297 17.72C33.7498 18.808 34.5497 19.928 36.1818 19.928C37.2698 19.928 38.3258 19.384 38.3258 18.2C38.3258 17.4 37.8138 16.824 36.5017 16.344L34.4538 15.576C31.7017 14.584 30.5497 12.824 30.5497 10.808C30.5497 7.832 33.1737 6.04 36.3098 6.04C39.3177 6.04 41.5258 7.736 42.0698 10.296L38.7098 11.16C38.2618 9.816 37.3977 9.4 36.5017 9.4C35.3818 9.4 34.7098 10.04 34.7098 10.84C34.7098 11.544 35.1258 12.152 36.4378 12.6L38.2937 13.304C40.3418 14.04 42.5818 15.256 42.5818 18.2C42.5818 21.528 39.7338 23.32 36.2457 23.32ZM59.0443 23H54.7563V20.76H54.6603C54.2443 21.688 52.3243 23.32 49.3483 23.32C45.4763 23.32 41.3483 20.44 41.3483 14.68C41.3483 8.92 45.4763 6.04 49.3483 6.04C52.3243 6.04 54.2443 7.672 54.6603 8.6H54.7563V0.279999H59.0443V23ZM45.5723 14.68C45.5723 17.784 47.8123 19.48 50.2123 19.48C52.6123 19.48 54.8523 17.816 54.8523 14.68C54.8523 11.544 52.6123 9.88 50.2123 9.88C47.8123 9.88 45.5723 11.576 45.5723 14.68ZM62.4965 29.08L65.2165 22.84L58.3045 6.36H62.6885L67.2965 17.912L71.8725 6.36H76.2885L69.2805 23L66.6885 29.08H62.4965Z" fill="black"/>
</svg>
