<svg width="101" height="26" viewBox="0 0 101 26" fill="none" xmlns="http://www.w3.org/2000/svg">
<path d="M3.048 10.504C3.384 10.504 3.68267 10.5787 3.944 10.728C4.20533 10.872 4.408 11.088 4.552 11.376C4.70133 11.6587 4.776 12 4.776 12.4V15H3.656V12.552C3.656 12.2 3.568 11.9307 3.392 11.744C3.216 11.552 2.976 11.456 2.672 11.456C2.36267 11.456 2.11733 11.552 1.936 11.744C1.76 11.9307 1.672 12.2 1.672 12.552V15H0.552V9.08H1.672V11.12C1.816 10.928 2.008 10.7787 2.248 10.672C2.488 10.56 2.75467 10.504 3.048 10.504ZM9.96106 12.688C9.96106 12.848 9.9504 12.992 9.92906 13.12H6.68906C6.71573 13.44 6.82773 13.6907 7.02506 13.872C7.2224 14.0533 7.46506 14.144 7.75306 14.144C8.16906 14.144 8.46506 13.9653 8.64106 13.608H9.84906C9.72106 14.0347 9.47573 14.3867 9.11306 14.664C8.7504 14.936 8.30506 15.072 7.77706 15.072C7.3504 15.072 6.9664 14.9787 6.62506 14.792C6.28906 14.6 6.02506 14.3307 5.83306 13.984C5.6464 13.6373 5.55306 13.2373 5.55306 12.784C5.55306 12.3253 5.6464 11.9227 5.83306 11.576C6.01973 11.2293 6.28106 10.9627 6.61706 10.776C6.95306 10.5893 7.33973 10.496 7.77706 10.496C8.1984 10.496 8.5744 10.5867 8.90506 10.768C9.24106 10.9493 9.49973 11.208 9.68106 11.544C9.86773 11.8747 9.96106 12.256 9.96106 12.688ZM8.80106 12.368C8.79573 12.08 8.69173 11.8507 8.48906 11.68C8.2864 11.504 8.0384 11.416 7.74506 11.416C7.46773 11.416 7.23306 11.5013 7.04106 11.672C6.8544 11.8373 6.73973 12.0693 6.69706 12.368H8.80106ZM10.4906 12.784C10.4906 12.3253 10.5839 11.9253 10.7706 11.584C10.9572 11.2373 11.2159 10.9707 11.5466 10.784C11.8772 10.592 12.2559 10.496 12.6826 10.496C13.2319 10.496 13.6852 10.6347 14.0426 10.912C14.4052 11.184 14.6479 11.568 14.7706 12.064H13.5626C13.4986 11.872 13.3892 11.7227 13.2346 11.616C13.0852 11.504 12.8986 11.448 12.6746 11.448C12.3546 11.448 12.1012 11.5653 11.9146 11.8C11.7279 12.0293 11.6346 12.3573 11.6346 12.784C11.6346 13.2053 11.7279 13.5333 11.9146 13.768C12.1012 13.9973 12.3546 14.112 12.6746 14.112C13.1279 14.112 13.4239 13.9093 13.5626 13.504H14.7706C14.6479 13.984 14.4052 14.3653 14.0426 14.648C13.6799 14.9307 13.2266 15.072 12.6826 15.072C12.2559 15.072 11.8772 14.9787 11.5466 14.792C11.2159 14.6 10.9572 14.3333 10.7706 13.992C10.5839 13.6453 10.4906 13.2427 10.4906 12.784ZM18.0871 10.504C18.4231 10.504 18.7217 10.5787 18.9831 10.728C19.2444 10.872 19.4471 11.088 19.5911 11.376C19.7404 11.6587 19.8151 12 19.8151 12.4V15H18.6951V12.552C18.6951 12.2 18.6071 11.9307 18.4311 11.744C18.2551 11.552 18.0151 11.456 17.7111 11.456C17.4017 11.456 17.1564 11.552 16.9751 11.744C16.7991 11.9307 16.7111 12.2 16.7111 12.552V15H15.5911V9.08H16.7111V11.12C16.8551 10.928 17.0471 10.7787 17.2871 10.672C17.5271 10.56 17.7937 10.504 18.0871 10.504ZM22.8481 15.072C22.4215 15.072 22.0375 14.9787 21.6961 14.792C21.3548 14.6 21.0855 14.3307 20.8881 13.984C20.6961 13.6373 20.6001 13.2373 20.6001 12.784C20.6001 12.3307 20.6988 11.9307 20.8961 11.584C21.0988 11.2373 21.3735 10.9707 21.7201 10.784C22.0668 10.592 22.4535 10.496 22.8801 10.496C23.3068 10.496 23.6935 10.592 24.0401 10.784C24.3868 10.9707 24.6588 11.2373 24.8561 11.584C25.0588 11.9307 25.1601 12.3307 25.1601 12.784C25.1601 13.2373 25.0561 13.6373 24.8481 13.984C24.6455 14.3307 24.3681 14.6 24.0161 14.792C23.6695 14.9787 23.2801 15.072 22.8481 15.072ZM22.8481 14.096C23.0508 14.096 23.2401 14.048 23.4161 13.952C23.5975 13.8507 23.7415 13.7013 23.8481 13.504C23.9548 13.3067 24.0081 13.0667 24.0081 12.784C24.0081 12.3627 23.8961 12.04 23.6721 11.816C23.4535 11.5867 23.1841 11.472 22.8641 11.472C22.5441 11.472 22.2748 11.5867 22.0561 11.816C21.8428 12.04 21.7361 12.3627 21.7361 12.784C21.7361 13.2053 21.8401 13.5307 22.0481 13.76C22.2615 13.984 22.5281 14.096 22.8481 14.096ZM32.0079 12.688C32.0079 12.848 31.9973 12.992 31.9759 13.12H28.7359C28.7626 13.44 28.8746 13.6907 29.0719 13.872C29.2693 14.0533 29.5119 14.144 29.7999 14.144C30.2159 14.144 30.5119 13.9653 30.6879 13.608H31.8959C31.7679 14.0347 31.5226 14.3867 31.1599 14.664C30.7973 14.936 30.3519 15.072 29.8239 15.072C29.3973 15.072 29.0133 14.9787 28.6719 14.792C28.3359 14.6 28.0719 14.3307 27.8799 13.984C27.6933 13.6373 27.5999 13.2373 27.5999 12.784C27.5999 12.3253 27.6933 11.9227 27.8799 11.576C28.0666 11.2293 28.3279 10.9627 28.6639 10.776C28.9999 10.5893 29.3866 10.496 29.8239 10.496C30.2453 10.496 30.6213 10.5867 30.9519 10.768C31.2879 10.9493 31.5466 11.208 31.7279 11.544C31.9146 11.8747 32.0079 12.256 32.0079 12.688ZM30.8479 12.368C30.8426 12.08 30.7386 11.8507 30.5359 11.68C30.3333 11.504 30.0853 11.416 29.7919 11.416C29.5146 11.416 29.2799 11.5013 29.0879 11.672C28.9013 11.8373 28.7866 12.0693 28.7439 12.368H30.8479ZM35.2814 10.504C35.8094 10.504 36.2361 10.672 36.5614 11.008C36.8868 11.3387 37.0494 11.8027 37.0494 12.4V15H35.9294V12.552C35.9294 12.2 35.8414 11.9307 35.6654 11.744C35.4894 11.552 35.2494 11.456 34.9454 11.456C34.6361 11.456 34.3908 11.552 34.2094 11.744C34.0334 11.9307 33.9454 12.2 33.9454 12.552V15H32.8254V10.568H33.9454V11.12C34.0948 10.928 34.2841 10.7787 34.5134 10.672C34.7481 10.56 35.0041 10.504 35.2814 10.504Z" fill="white"/>
<path d="M52.56 21L49.056 15.36H46.512V21H43.224V3.96H49.2C52.824 3.96 55.224 6.264 55.224 9.744C55.224 12.192 54.048 13.968 52.08 14.808L56.064 21H52.56ZM46.512 12.504H48.864C50.664 12.504 51.888 11.736 51.888 9.744C51.888 7.776 50.664 6.984 48.864 6.984H46.512V12.504ZM60.6789 21.24C57.2469 21.24 54.1749 18.912 54.1749 14.76C54.1749 10.56 57.2949 8.28 60.4869 8.28C63.6549 8.28 67.2549 10.512 66.5589 16.008H57.2229C57.6789 17.712 59.1669 18.6 61.0389 18.6C62.2629 18.6 63.3429 18.264 64.2549 17.472L65.7189 19.032C64.6869 20.328 62.8869 21.24 60.6789 21.24ZM57.1749 13.656H63.7029C63.5109 11.88 62.0229 10.992 60.5109 10.992C59.0229 10.992 57.5829 11.856 57.1749 13.656ZM69.9343 21.24C67.4623 21.24 65.6383 20.04 65.2543 17.736L67.8223 17.04C68.0623 17.856 68.6623 18.696 69.8863 18.696C70.7023 18.696 71.4943 18.288 71.4943 17.4C71.4943 16.8 71.1103 16.368 70.1263 16.008L68.5903 15.432C66.5263 14.688 65.6623 13.368 65.6623 11.856C65.6623 9.624 67.6303 8.28 69.9823 8.28C72.2383 8.28 73.8943 9.552 74.3023 11.472L71.7823 12.12C71.4463 11.112 70.7983 10.8 70.1263 10.8C69.2863 10.8 68.7823 11.28 68.7823 11.88C68.7823 12.408 69.0943 12.864 70.0783 13.2L71.4703 13.728C73.0063 14.28 74.6863 15.192 74.6863 17.4C74.6863 19.896 72.5503 21.24 69.9343 21.24ZM87.0332 21H83.8172V19.32H83.7452C83.4332 20.016 81.9932 21.24 79.7612 21.24C76.8572 21.24 73.7612 19.08 73.7612 14.76C73.7612 10.44 76.8572 8.28 79.7612 8.28C81.9932 8.28 83.4332 9.504 83.7452 10.2H83.8172V3.96H87.0332V21ZM76.9292 14.76C76.9292 17.088 78.6092 18.36 80.4092 18.36C82.2092 18.36 83.8892 17.112 83.8892 14.76C83.8892 12.408 82.2092 11.16 80.4092 11.16C78.6092 11.16 76.9292 12.432 76.9292 14.76ZM89.6224 25.56L91.6624 20.88L86.4784 8.52H89.7664L93.2224 17.184L96.6544 8.52H99.9664L94.7104 21L92.7664 25.56H89.6224Z" fill="white"/>
</svg>
